<?xml version="1.0" encoding="UTF-8"?>
<svg width="460px" height="431px" viewBox="0 0 460 431" version="1.1" xmlns="http://www.w3.org/2000/svg" xmlns:xlink="http://www.w3.org/1999/xlink">
    <!-- Generator: Sketch 48.1 (47250) - http://www.bohemiancoding.com/sketch -->
    <title>Endowment Illustrartion</title>
    <desc>Created with Sketch.</desc>
    <defs>
        <polygon id="path-1" points="0.000114641478 0.281395075 459.410976 0.281395075 459.410976 429.708719 0.000114641478 429.708719"></polygon>
        <polygon id="path-3" points="0 430.229019 459.410976 430.229019 459.410976 0.801695371 0 0.801695371"></polygon>
    </defs>
    <g id="About-Smart-Alumni--web" stroke="none" stroke-width="1" fill="none" fill-rule="evenodd" transform="translate(-156.000000, -2118.000000)">
        <g id="Group-14" transform="translate(0.000000, 2053.000000)">
            <g id="Endowment-Illustrartion" transform="translate(156.000000, 65.000000)">
                <g id="Group-3" transform="translate(0.000000, 0.520300)">
                    <mask id="mask-2" fill="white">
                        <use xlink:href="#path-1"></use>
                    </mask>
                    <g id="Clip-2"></g>
                    <path d="M240.237885,429.425239 C400.232937,418.729821 365.516561,322.735619 419.907955,291.714819 C474.30015,260.693216 470.828512,120.732437 419.907955,122.40798 C368.988199,124.083523 321.538477,29.7792952 292.606561,10.0984756 C263.674645,-9.58314579 136.146456,-3.1551523 91.0127631,61.6771507 C45.8790697,126.508652 -14.2991882,165.447798 3.05980139,225.28153 C20.4187909,285.115262 55.0670488,379.130079 88.7768746,383.900166 C122.4867,388.670254 176.543913,433.683044 240.237885,429.425239" id="Fill-1" fill="#EDF1F3" mask="url(#mask-2)"></path>
                </g>
                <path d="M183.281328,89.3451463 L278.513349,86.4221649 C278.513349,86.4221649 273.794743,119.430368 289.708819,128.645055 C306.841014,138.564432 310.671676,145.563232 312.320143,161.532203 C313.649655,174.419456 313.80753,306.976578 312.320143,350.067705 C312.07091,357.275748 307.226485,366.628326 291.096032,369.600211 C274.96638,372.572897 179.460283,369.600211 179.460283,369.600211 C179.460283,369.600211 155.690143,362.386556 155.690143,341.999442 C155.690143,321.108063 151.589412,179.109374 155.690143,161.532203 C159.962373,143.220679 185.828157,140.300904 183.281328,89.3451463" id="Fill-4" fill="#FFFFFF"></path>
                <path d="M276.158195,213.893367 C276.158195,228.708698 288.110181,240.719698 302.855024,240.719698 C306.437254,240.719698 309.857603,240.009396 312.974223,238.72508 L312.974223,268.181773 L219.49485,255.788364 L235.573213,159.604962 L312.974223,174.629535 L312.974223,187.203325 C309.857603,185.72099 306.437254,184.881615 302.855024,184.881615 C288.110181,184.881615 276.158195,199.078037 276.158195,213.893367" id="Fill-6" fill="#C4DAF9"></path>
                <path d="M269.074756,258.867756 L271.443676,249.544841 C271.443676,249.544841 245.642805,256.714402 198.656289,235.686734 L196.423606,243.197017 L269.074756,258.867756 Z" id="Fill-8" fill="#6D91B5"></path>
                <path d="M266.235418,252.404488 C242.774617,251.993218 221.391829,247.199882 196.572666,238.333131 L175.190679,321.911477 C199.945732,330.953799 224.80176,335.577978 249.783606,334.685691 L266.235418,252.404488 Z" id="Fill-10" fill="#C4DAF9"></path>
                <path d="M266.235418,252.404488 C242.774617,251.993218 221.391829,247.199882 196.572666,238.333131 L175.190679,321.911477 C199.945732,330.953799 224.80176,335.577978 249.783606,334.685691 L266.235418,252.404488 Z" id="Stroke-12" stroke="#838BC5" stroke-width="0.8"></path>
                <path d="M214.928268,164.487687 L214.928268,205.064697 C163.192693,242.874254 161.355098,263.133096 202.754296,268.184579 C163.755272,276.03478 159.253843,245.183938 165.385307,202.407077 C174.187014,181.174175 190.046596,167.805103 214.928268,164.487687" id="Fill-14" fill="#C4DAF9"></path>
                <path d="M312.976868,187.201722 L312.976868,238.724278 C309.859446,240.008594 306.439098,240.721301 302.856066,240.721301 C288.110422,240.721301 276.156833,228.710301 276.156833,213.895772 C276.156833,199.076433 288.110422,184.880012 302.856066,184.880012 C306.439098,184.880012 309.859446,185.718585 312.976868,187.201722" id="Fill-16" fill="#365279"></path>
                <path d="M312.974544,241.28369 L256.641373,232.724791 C256.641373,232.724791 253.019073,328.908193 238.14761,350.277383 L312.954509,243.104341 L312.974544,241.28369 Z" id="Fill-18" fill="#6D91B5"></path>
                <path d="M312.954188,243.10394 C312.090286,296.92656 307.608091,337.235002 284.183352,356.476492 L238.147289,349.714192 C249.931784,329.040873 254.156732,288.91602 259.363387,234.767911 L312.954188,243.10394 Z" id="Fill-20" fill="#C4DAF9"></path>
                <path d="M312.954188,243.10394 C312.090286,296.92656 307.608091,337.235002 284.183352,356.476492 L238.147289,349.714192 C249.931784,329.040873 254.156732,288.91602 259.363387,234.767911 L312.954188,243.10394 Z" id="Stroke-22" stroke="#838BC5" stroke-width="0.8"></path>
                <path d="M253.357582,331.977804 C253.357582,344.630962 263.565735,354.888655 276.158836,354.888655 C288.751136,354.888655 298.960091,344.630962 298.960091,331.977804 C298.960091,319.324646 288.751136,309.066954 276.158836,309.066954 C263.565735,309.066954 253.357582,319.324646 253.357582,331.977804" id="Fill-24" fill="#365279"></path>
                <polygon id="Fill-26" fill="#6D91B5" points="190.013017 261.925743 190.42253 260.327162 200.415108 262.888579 197.691171 329.274568 195.900056 329.274568"></polygon>
                <path d="M199.368408,263.93431 L195.629105,356.478817 L155.588268,346.715771 L155.593878,338.913672 C166.699592,334.756079 175.249662,322.571913 175.249662,310.538466 C175.249662,298.17953 165.477467,284.623663 154.158582,280.336196 L153.70339,253.467376 L199.368408,263.93431 Z" id="Fill-28" fill="#C4DAF9"></path>
                <path d="M175.250624,310.537584 C175.250624,322.569428 166.701355,334.757603 155.596443,338.913592 L155.235014,324.282651 L154.61153,298.84165 L154.156338,280.337719 C165.476024,284.624384 175.250624,298.181053 175.250624,310.537584" id="Fill-30" fill="#365279"></path>
                <polygon id="Fill-32" fill="#FFFFFF" points="312.976868 217.333442 311.850909 215.515197 309.849829 212.287571 308.173314 209.577841 301.546589 198.882423 295.994533 198.882423 295.994533 228.904311 300.996833 228.904311 300.996833 206.827224 301.122652 206.827224 302.824812 209.577841 304.501328 212.287571 306.496798 215.515197 308.173314 218.224126 312.976868 225.985338 312.976868 218.224126 313.531432 218.224126"></polygon>
                <mask id="mask-4" fill="white">
                    <use xlink:href="#path-3"></use>
                </mask>
                <g id="Clip-35"></g>
                <polygon id="Fill-34" fill="#FFFFFF" mask="url(#mask-4)" points="290.630244 212.287331 312.977108 212.287331 312.977108 209.578402 290.630244 209.578402"></polygon>
                <polygon id="Fill-36" fill="#FFFFFF" mask="url(#mask-4)" points="313.531753 218.224366 290.630324 218.224366 290.630324 215.515437 312.977188 215.515437 312.977188 217.333683"></polygon>
                <path d="M267.043143,332.749356 C267.128091,333.905401 267.465477,334.853004 268.054502,335.591366 C268.642725,336.329727 269.578753,336.698507 270.863387,336.698507 C271.462028,336.698507 271.964502,336.58627 272.370808,336.361795 C272.777115,336.13732 273.120111,335.836685 273.398997,335.462293 C273.676279,335.087901 273.90147,334.664606 274.072167,334.194813 C274.242864,333.723416 274.393526,333.241597 274.521749,332.749356 L267.043143,332.749356 Z M285.274049,331.368836 C285.274049,330.212792 285.032829,329.318901 284.551993,328.687967 C284.070355,328.056231 283.262551,327.740363 282.128578,327.740363 C281.615686,327.740363 281.176523,327.84779 280.81269,328.061843 C280.448857,328.275094 280.138718,328.548472 279.882272,328.880374 C279.625024,329.211474 279.416662,329.59709 279.255582,330.036419 C279.095303,330.474946 278.96147,330.919085 278.854885,331.368836 L285.274049,331.368836 Z M271.665582,327.258544 C270.253526,327.2377 269.139589,327.547956 268.327777,328.190114 C267.513561,328.832272 267.086418,329.892114 267.043143,331.368836 L274.810251,331.368836 C275.045861,330.49098 275.329554,329.618735 275.661331,328.752103 C275.993108,327.88547 276.420251,327.103817 276.944362,326.407945 C277.469275,325.712074 278.12722,325.150085 278.918997,324.722782 C279.710774,324.293875 280.694885,324.080624 281.872132,324.080624 C282.898718,324.080624 283.80269,324.277841 284.584049,324.673878 C285.364606,325.069916 286.017742,325.605448 286.541854,326.279674 C287.065965,326.9539 287.466662,327.729139 287.745547,328.606996 C288.023631,329.484852 288.163073,330.406 288.163073,331.368836 L290.666627,331.368836 L290.666627,332.749356 L288.163073,332.749356 C288.163073,333.712994 288.034049,334.622116 287.777603,335.479129 C287.521157,336.334538 287.135686,337.078511 286.621993,337.710247 C286.1083,338.341181 285.455965,338.844646 284.664188,339.219037 C283.872411,339.593429 282.952411,339.781026 281.904188,339.781026 L281.904188,336.120485 C282.994885,336.077193 283.829937,335.794195 284.407742,335.270688 C284.985547,334.745577 285.274049,333.905401 285.274049,332.749356 L278.502272,332.749356 C278.245024,333.712994 277.945303,334.654184 277.603108,335.57453 C277.260913,336.494877 276.821749,337.308597 276.28722,338.014891 C275.751889,338.721185 275.088334,339.288785 274.297359,339.71689 C273.50478,340.144996 272.531889,340.359048 271.376279,340.359048 C270.177394,340.359048 269.13478,340.16103 268.246836,339.764992 C267.359693,339.368954 266.620808,338.828612 266.031784,338.143964 C265.443561,337.458514 264.993979,336.656017 264.684641,335.735671 C264.374502,334.815325 264.197394,333.819619 264.15492,332.749356 L261.650564,332.749356 L261.650564,331.368836 L264.15492,331.368836 C264.176557,330.212792 264.358474,329.15295 264.699868,328.190114 C265.042063,327.227278 265.52931,326.403135 266.160007,325.717686 C266.792307,325.033038 267.567254,324.502316 268.488056,324.128725 C269.407254,323.753532 270.465895,323.577159 271.665582,323.598003 L271.665582,327.258544 Z" id="Fill-37" fill="#FFFFFF" mask="url(#mask-4)"></path>
                <path d="M168.38869,320.426015 C167.85977,320.881378 167.293986,321.232521 166.685728,321.484253 C166.083882,321.735985 165.429143,321.861852 164.727122,321.861852 C164.15092,321.861852 163.647645,321.793708 163.218098,321.651807 C162.788551,321.515519 162.363812,321.358387 161.934265,321.180411 C161.510328,321.0337 161.055136,320.88699 160.578307,320.750702 C160.101477,320.609603 159.535693,320.541459 158.880955,320.541459 C158.252662,320.541459 157.660432,320.656904 157.110676,320.881378 C156.554509,321.107456 155.988725,321.331931 155.413324,321.558009 L155.334787,321.484253 C155.837261,321.107456 156.324509,320.703402 156.79092,320.279305 C157.251721,319.849596 157.660432,319.377398 158.017052,318.864313 C158.367261,318.345616 158.639735,317.794851 158.844091,317.2032 C159.043638,316.610747 159.14862,315.976606 159.14862,315.295967 C159.14862,314.367603 158.943463,313.52422 158.540362,312.769824 L163.181233,312.769824 L163.181233,310.317438 L157.639596,310.317438 C157.235693,309.588697 156.84301,308.77658 156.465554,307.881086 C156.088899,306.989601 155.900571,306.103727 155.900571,305.224268 C155.900571,303.788431 156.309282,302.692514 157.125902,301.938118 C157.943324,301.183723 158.933045,300.806124 160.091059,300.806124 C160.992627,300.806124 161.766774,300.952835 162.406286,301.240643 C163.050606,301.529254 163.563498,301.933308 163.956983,302.452005 C164.344056,302.96509 164.632557,303.578387 164.820885,304.280672 C165.009213,304.982957 165.130223,305.737353 165.177505,306.54466 L169.477784,306.54466 C169.456948,303.426065 168.593045,301.089123 166.895693,299.543454 C165.198341,297.996984 162.903951,297.221744 160.012523,297.221744 C158.907401,297.221744 157.822314,297.405333 156.770084,297.772509 C155.983916,298.039474 155.266669,298.396228 154.61193,298.841169 L155.235415,324.282972 C155.696216,324.17795 156.141791,324.125839 156.581756,324.125839 C157.283777,324.125839 157.96416,324.198794 158.6197,324.351116 C159.268829,324.502636 159.91315,324.681414 160.541443,324.880235 C161.196181,324.979645 161.830084,325.100701 162.447958,325.236187 C163.061826,325.378088 163.674091,325.446232 164.275937,325.446232 C165.506878,325.446232 166.580746,325.29391 167.498341,324.995679 C168.414334,324.691035 169.351965,324.13546 170.310432,323.333764 L168.38869,320.426015 Z" id="Fill-38" fill="#FFFFFF" mask="url(#mask-4)"></path>
                <path d="M203.994373,244.928117 L203.203397,245.75226 C202.886045,245.154997 202.456498,244.77339 201.913153,244.607439 C201.435523,244.460729 200.977125,244.52727 200.540366,244.807863 C200.166115,245.060397 199.855976,245.422763 199.610749,245.89416 L202.438066,246.759991 L201.949216,247.360461 L199.326254,246.556361 C199.307021,246.590032 199.288589,246.638935 199.269355,246.703071 C199.249321,246.767207 199.224477,246.849781 199.194024,246.949993 C199.136324,247.135185 199.105871,247.247422 199.102666,247.285102 L201.576568,248.042704 L201.102944,248.635958 L198.949599,247.976965 C198.85824,248.581443 198.901516,249.09052 199.079425,249.504195 C199.275767,250.010064 199.649216,250.346776 200.199774,250.515934 C200.556394,250.624965 200.87054,250.658636 201.14061,250.616146 C201.387439,250.574458 201.684756,250.471039 202.033362,250.304287 L201.66953,251.493201 C201.086916,251.659152 200.500296,251.650333 199.907265,251.46915 C198.950401,251.175729 198.294059,250.654627 197.937439,249.905042 C197.628902,249.255669 197.547962,248.48524 197.697021,247.592953 L196.871585,247.340419 L197.367648,246.753578 L197.849286,246.90109 C197.858101,246.84898 197.868519,246.794464 197.882944,246.73594 C197.896568,246.677417 197.913397,246.615686 197.933432,246.551551 C197.948659,246.501845 197.967091,246.445727 197.991132,246.382393 C198.014373,246.319059 198.040819,246.249311 198.072073,246.17315 L197.301132,245.93665 L197.789983,245.33618 L198.357369,245.510148 C198.786916,244.743727 199.311028,244.192963 199.928902,243.858656 C200.646951,243.477049 201.434721,243.417723 202.291411,243.679878 C202.912491,243.86988 203.479878,244.285959 203.994373,244.928117" id="Fill-39" fill="#FFFFFF" mask="url(#mask-4)"></path>
                <path d="M183.281328,89.3451463 L278.513349,86.4221649 C278.513349,86.4221649 273.794743,119.430368 289.708819,128.645055 C306.841014,138.564432 310.671676,145.563232 312.320143,161.532203 C313.649655,174.419456 313.80753,306.976578 312.320143,350.067705 C312.07091,357.275748 307.226485,366.628326 291.096032,369.600211 C274.96638,372.572897 179.460283,369.600211 179.460283,369.600211 C179.460283,369.600211 155.690143,362.386556 155.690143,341.999442 C155.690143,321.108063 151.589412,179.109374 155.690143,161.532203 C159.962373,143.220679 185.828157,140.300904 183.281328,89.3451463" id="Fill-40" fill="#F4F6F8" opacity="0.203181612" mask="url(#mask-4)"></path>
                <path d="M285.803049,89.3784515 L173.607927,89.3784515 L173.607927,72.105123 C173.607927,66.3818198 178.244791,61.7432104 183.965941,61.7432104 L275.445836,61.7432104 C281.166185,61.7432104 285.803049,66.3818198 285.803049,72.105123 L285.803049,89.3784515 Z" id="Fill-41" fill="#365279" mask="url(#mask-4)"></path>
            </g>
        </g>
    </g>
</svg>