<?xml version="1.0" encoding="UTF-8"?>
<svg width="462px" height="541px" viewBox="0 0 462 541" version="1.1" xmlns="http://www.w3.org/2000/svg" xmlns:xlink="http://www.w3.org/1999/xlink">
    <!-- Generator: Sketch 48.1 (47250) - http://www.bohemiancoding.com/sketch -->
    <title>Fund Illustration</title>
    <desc>Created with Sketch.</desc>
    <defs>
        <polygon id="path-1" points="461.373858 0.234837723 461.373858 423.121552 0.000134868299 423.121552 0.000134868299 0.234837723"></polygon>
    </defs>
    <g id="About-Smart-Alumni--web" stroke="none" stroke-width="1" fill="none" fill-rule="evenodd" transform="translate(-842.000000, -214.000000)">
        <g id="Fund-Illustration" transform="translate(842.000000, 214.000000)">
            <g id="Group-3" transform="translate(0.000000, 117.104892)">
                <mask id="mask-2" fill="white">
                    <use xlink:href="#path-1"></use>
                </mask>
                <g id="Clip-2"></g>
                <path d="M222.582632,423.121542 C343.237495,423.167159 376.061915,273.452612 425.482303,245.291801 C474.90189,217.13019 471.74796,90.0728186 425.482303,91.5941811 C379.216646,93.1155435 311.919981,27.9546544 285.633221,10.0880494 C259.345662,-7.77855562 123.701821,-5.6769787 82.6943168,53.177579 C41.6852111,112.032937 -12.9925289,147.381205 2.78032721,201.698885 C18.5523827,256.015765 69.804757,345.097498 100.433676,349.427098 C131.062594,353.756699 200.280123,423.112739 222.582632,423.121542" id="Fill-1" fill="#F4F6F8" mask="url(#mask-2)"></path>
            </g>
            <path d="M232.746472,142.509884 C232.746472,142.509884 226.336122,75.1809933 172.445463,52.7374963 C118.555606,30.2939993 102.276711,46.0046072 102.276711,46.0046072 L80.383356,96.5016753 C80.383356,96.5016753 130.344212,88.0857641 160.657658,111.650476 C190.971103,135.215987 185.918729,152.609618 185.918729,152.609618 L232.746472,142.509884 Z" id="Fill-4" fill="#909C73"></path>
            <path d="M278.74766,155.098938 C278.74766,155.098938 285.563161,117.822757 318.26027,106.601009 C350.957379,95.3792604 362.745986,112.211883 364.429844,109.967053 C366.113702,107.723824 356.57104,102.112149 354.325896,93.6962382 C352.079951,85.2803269 357.693611,62.8368299 355.448468,58.9097781 C353.202523,54.981926 318.783923,43.2047722 290.861348,63.9588447 C262.939573,84.7145178 254.373757,93.1352308 254.373757,93.1352308 L262.939573,159.342907 L278.74766,155.098938 Z" id="Fill-6" fill="#909C73"></path>
            <g id="Group-10" transform="translate(177.753899, 0.261697)" fill="#758452">
                <path d="M0.376165685,4.90837456 C5.36688666,0.668407101 29.6711293,-1.25790503 49.8854308,2.68915414 C64.1497809,5.47418373 77.620644,14.3342592 86.7749698,12.3183139 C100.365136,9.32600769 109.022232,0.894890828 109.599531,3.38381095 C110.176831,5.87273107 84.7940548,45.4041453 85.1855938,84.4529811 C85.5779334,123.501817 94.3767515,154.837401 94.3767515,154.837401 L17.0842315,154.837401 C17.0842315,154.837401 27.6990218,113.568545 26.7341865,78.7628775 C25.7693511,43.9572104 0.376165685,4.90837456 0.376165685,4.90837456" id="Fill-8"></path>
            </g>
            <path d="M287.353511,176.701404 L307.382052,163.942287 C307.382052,163.942287 314.505019,160.751508 317.696582,166.732919 C320.887345,172.71433 316.1008,176.701404 316.1008,176.701404 L290.17035,201.023996 L287.353511,176.701404 Z" id="Fill-11" fill="#C5DBF9"></path>
            <polygon id="Fill-13" fill="#6FA5F1" points="289.474868 211.717469 300.729412 223.790732 290.802417 232.751645"></polygon>
            <path d="M178.130065,250.248913 C176.615954,224.19048 155.356748,204.576829 148.571673,204.152672 C141.7882,203.729316 138.820031,204.448782 139.243597,211.717869 C139.667965,218.986956 151.116277,246.125789 150.268342,254.805798 C149.420408,263.485807 136.276228,302.899578 135.003927,314.343008 C133.731625,325.785638 155.356748,377.489553 159.172852,381.727919 C162.988956,385.965486 161.293088,424.531743 161.293088,424.531743 L229.982959,428.346754 L292.441036,312.369479 L216.414412,236.786337 L183.835805,296.54843 C183.835805,296.54843 179.535282,294.855804 178.524006,293.746594 C173.807122,288.56948 173.200998,280.889841 176.652786,265.800263 C177.812991,260.728788 178.35506,254.131149 178.130065,250.248913" id="Fill-15" fill="#C5DBF9"></path>
            <path d="M278.609508,350.274778 L190.121695,350.274778 C183.427099,350.274778 178,344.850373 178,338.158299 L178,160.116479 C178,153.424405 183.427099,148 190.121695,148 L278.609508,148 C285.304104,148 290.731203,153.424405 290.731203,160.116479 L290.731203,338.158299 C290.731203,344.850373 285.304104,350.274778 278.609508,350.274778" id="Fill-17" fill="#211D4C"></path>
            <rect id="Screen" fill="#FFFFFF" x="180" y="150" width="109" height="198" rx="10"></rect>
            <path d="M210,150 L259,150 L255.618371,156.765464 C255.44772,157.106877 255.097605,157.321372 254.715932,157.318336 L215.222618,157.004202 C214.892058,157.001573 214.584156,156.835753 214.400038,156.561202 L210,150 Z" id="Rectangle" fill="#211D4C"></path>
            <g id="Group" transform="translate(194.000000, 183.000000)" fill="#CDD8E8">
                <rect id="Rectangle-2" x="0" y="0" width="20" height="20" rx="1"></rect>
                <rect id="Rectangle-2-Copy" x="27" y="0" width="54" height="6" rx="1"></rect>
                <rect id="Rectangle-2-Copy-2" x="27" y="9" width="54" height="6" rx="1"></rect>
            </g>
            <g id="Group-Copy" transform="translate(194.000000, 217.000000)" fill="#CDD8E8">
                <rect id="Rectangle-2" x="0" y="0" width="20" height="20" rx="1"></rect>
                <rect id="Rectangle-2-Copy" x="27" y="0" width="54" height="6" rx="1"></rect>
                <rect id="Rectangle-2-Copy-2" x="27" y="9" width="54" height="6" rx="1"></rect>
            </g>
            <g id="Group-Copy-2" transform="translate(194.000000, 251.000000)" fill="#CDD8E8">
                <rect id="Rectangle-2" x="0" y="0" width="20" height="20" rx="1"></rect>
                <rect id="Rectangle-2-Copy" x="27" y="0" width="54" height="6" rx="1"></rect>
                <rect id="Rectangle-2-Copy-2" x="27" y="9" width="54" height="6" rx="1"></rect>
            </g>
            <g id="Group-Copy-3" transform="translate(194.000000, 285.000000)" fill="#CDD8E8">
                <rect id="Rectangle-2" x="0" y="0" width="20" height="20" rx="1"></rect>
                <rect id="Rectangle-2-Copy" x="27" y="0" width="54" height="6" rx="1"></rect>
                <rect id="Rectangle-2-Copy-2" x="27" y="9" width="54" height="6" rx="1"></rect>
            </g>
            <g id="Group-Copy-4" transform="translate(194.000000, 319.000000)" fill="#CDD8E8">
                <rect id="Rectangle-2" x="0" y="0" width="20" height="20" rx="1"></rect>
                <rect id="Rectangle-2-Copy" x="27" y="0" width="54" height="6" rx="1"></rect>
                <rect id="Rectangle-2-Copy-2" x="27" y="9" width="54" height="6" rx="1"></rect>
            </g>
            <path d="M239.404957,258.713803 C234.718499,239.33944 248.675383,238.401494 262.936531,234.124713 C277.197678,229.848732 297.520073,222.721297 300.729252,223.790492 C303.937629,224.859687 307.780957,239.151371 304.572579,243.481772 C301.363401,247.811372 273.545716,261.918988 260.605713,265.938874 C255.57816,267.500251 243.350773,275.026233 239.404957,258.713803" id="Fill-19" fill="#6FA5F1"></path>
            <path d="M245.446188,292.033881 C239.681997,275.033996 250.318406,271.841616 263.863733,265.662532 C277.409862,259.483447 296.571252,249.655014 299.89573,250.276844 C303.220208,250.899474 308.975591,264.534114 306.387751,269.260662 C303.79911,273.988009 278.164115,291.752177 265.89269,297.4967 C261.125363,299.728725 250.557813,307.109054 245.446188,292.033881" id="Fill-21" fill="#6FA5F1"></path>
            <path d="M265.296574,316.313176 C260.229787,306.171827 263.678373,300.472921 272.334668,295.013302 C283.112799,288.214789 298.333978,277.822147 301.225281,277.984607 C304.115784,278.147067 310.505316,289.087111 308.828664,293.3855 C307.152012,297.683089 294.706837,312.419737 284.549243,318.017807 C279.32472,320.898071 268.649877,323.026858 265.296574,316.313176" id="Fill-23" fill="#6FA5F1"></path>
            <path d="M242.852102,246.366278 C242.852102,246.366278 263.329831,238.384928 265.863225,250.636657 C268.277315,262.314574 247.177446,265.799862 247.177446,265.799862 C247.177446,265.799862 244.588805,261.914426 243.375755,256.178706 C242.250781,250.854337 242.852102,246.366278 242.852102,246.366278" id="Fill-25" fill="#FFFFFF"></path>
            <path d="M249.223618,279.225306 C249.223618,279.225306 268.706086,269.054346 272.563826,280.955545 C276.240609,292.300539 255.64758,298.069872 255.64758,298.069872 C255.64758,298.069872 252.649784,294.490149 250.816998,288.92089 C249.116325,283.751779 249.223618,279.225306 249.223618,279.225306" id="Fill-27" fill="#FFFFFF"></path>
            <path d="M268.544666,301.846949 C268.544666,301.846949 285.263942,293.118922 288.574008,303.331497 C291.73034,313.067096 274.05824,318.017727 274.05824,318.017727 C274.05824,318.017727 271.485612,314.946191 269.91225,310.166824 C268.452586,305.731585 268.544666,301.846949 268.544666,301.846949" id="Fill-29" fill="#FFFFFF"></path>
            <polygon id="Fill-31" fill="#FFFFFF" points="213.695258 407.084253 151.749625 407.084253 151.749625 428.346514 227.346277 428.346514"></polygon>
            <path d="M139.564275,423.800593 L238.481117,425.355568 C238.481117,425.355568 247.706705,525.315722 236.814875,540.461321 L128.671644,540.461321 C128.671644,540.461321 143.454043,471.624673 139.564275,423.800593" id="Fill-33" fill="#3F577C"></path>
            <path d="M201.31614,232.751805 C209.025214,231.16882 211.905308,239.352645 216.639006,251.466724 C229.02493,283.160841 238.619637,343.712826 243.58954,343.911299 C250.459488,344.185801 251.008764,338.418068 258.702625,338.69337 C266.396486,338.967872 269.96918,345.284607 275.189699,345.284607 C280.41102,345.284607 283.058112,337.594564 290.802417,337.869866 C298.546722,338.143567 297.172732,343.362296 302.118615,343.911299 C307.064497,344.461102 307.889211,339.516875 311.186466,341.713687 C314.48372,343.911299 321.353668,367.255929 316.682424,388.953551 C312.01118,410.650372 312.049613,420.445193 302.193079,430.699383 C293.933928,439.29136 292.760913,442.124407 293.472729,447.457579 C294.183745,452.79075 297.384115,523.357638 297.384115,523.357638 L239.756621,521.411318 C239.756621,521.411318 241.32598,505.142904 241.467703,486.003829 C241.617433,465.865984 244.14442,442.734233 239.401914,439.635487 C230.153107,433.590852 228.179398,439.501037 218.93059,429.545357 C209.681783,419.590477 191.735044,404.080743 191.023228,399.458234 C190.311412,394.835725 187.11024,374.569833 191.023228,373.85837 C194.936216,373.147707 205.149859,364.875849 208.098011,361.769901 C212.765252,356.853684 213.127166,351.51571 212.722816,341.859341 C212.227186,330.045373 202.048774,283.559388 195.697675,255.745906 C193.440521,245.860651 188.636362,235.355968 201.31614,232.751805" id="Fill-35" fill="#8BB6F4"></path>
            <path d="M207.605985,237.520768 C207.605985,237.520768 213.627999,250.841693 205.572225,252.952073 C197.893576,254.964817 194.838131,241.072481 194.838131,241.072481 C194.838131,241.072481 197.330689,239.218196 201.101154,238.212224 C204.601784,237.278278 207.605985,237.520768 207.605985,237.520768" id="Fill-37" fill="#FFFFFF"></path>
            <path d="M252.731375,80.7276839 C252.731375,90.541712 244.771684,98.4966528 234.952782,98.4966528 C225.134682,98.4966528 217.17499,90.541712 217.17499,80.7276839 C217.17499,70.9136558 225.134682,62.9579146 234.952782,62.9579146 C244.771684,62.9579146 252.731375,70.9136558 252.731375,80.7276839" id="Fill-39" fill="#F4F6F8"></path>
            <polygon id="Fill-41" fill="#1D1D1D" points="238.189104 87.3747012 231.62342 77.306179 231.62342 87.3747012 229.37187 87.3747012 229.37187 74.0809867 232.242356 74.0809867 238.282785 83.5124734 238.282785 74.0809867 240.534335 74.0809867 240.534335 87.3747012"></polygon>
            <polygon id="Fill-43" fill="#1D1D1D" points="227.879698 79.3965518 242.027147 79.3965518 242.027147 77.6391021 227.879698 77.6391021"></polygon>
            <polygon id="Fill-45" fill="#1D1D1D" points="227.879698 83.235571 242.027147 83.235571 242.027147 81.4781213 227.879698 81.4781213"></polygon>
        </g>
    </g>
</svg>