<svg xmlns="http://www.w3.org/2000/svg" xmlns:xlink="http://www.w3.org/1999/xlink" width="323" height="378" viewBox="0 0 323 378">
    <defs>
        <path id="a" d="M322.562.164v295.709H0V.164z"/>
    </defs>
    <g fill="none" fill-rule="evenodd">
        <g transform="translate(0 81.887)">
            <mask id="b" fill="#fff">
                <use xlink:href="#a"/>
            </mask>
            <path fill="#F4F6F8" d="M155.615 295.873c84.354.032 107.303-104.658 141.854-124.35 34.551-19.692 32.346-108.539 0-107.475-32.346 1.064-79.395-44.5-97.773-56.994C181.317-5.439 86.484-3.97 57.814 37.185S-9.084 103.058 1.944 141.04c11.027 37.982 46.859 100.274 68.273 103.301 21.413 3.028 69.806 51.526 85.398 51.532" mask="url(#b)"/>
        </g>
        <path fill="#909C73" d="M162.721 99.652s-4.482-47.08-42.158-62.775C82.886 21.183 71.505 32.17 71.505 32.17L56.2 67.48s34.93-5.885 56.122 10.593c21.193 16.478 17.661 28.641 17.661 28.641l32.739-7.062zM194.882 108.455s4.765-26.066 27.625-33.913c22.86-7.847 31.101 3.924 32.278 2.354 1.178-1.569-5.494-5.493-7.064-11.378-1.57-5.885 2.355-21.579.785-24.325-1.57-2.746-25.633-10.982-45.155 3.531-19.521 14.514-25.51 20.402-25.51 20.402l5.989 46.296 11.052-2.967z"/>
        <path fill="#758452" d="M124.537 3.615c3.489-2.965 20.48-4.312 34.613-1.552 9.973 1.948 19.391 8.143 25.791 6.734 9.502-2.093 15.554-7.988 15.958-6.248.403 1.74-17.343 29.383-17.069 56.689.274 27.305 6.426 49.217 6.426 49.217h-54.038s7.421-28.858 6.747-53.196c-.675-24.338-18.428-51.644-18.428-51.644"/>
        <path fill="#C5DBF9" d="M200.899 123.56l14.002-8.921s4.98-2.232 7.212 1.951c2.23 4.183-1.116 6.97-1.116 6.97l-18.129 17.008-1.97-17.007z"/>
        <path fill="#6FA5F1" d="M202.382 148.046l7.868 8.442-6.94 6.266z"/>
        <path fill="#C5DBF9" d="M124.537 174.99c-1.059-18.222-15.922-31.937-20.665-32.234-4.743-.296-6.818.207-6.522 5.29.297 5.083 8.3 24.06 7.708 30.13-.593 6.07-9.783 33.63-10.672 41.632-.89 8.002 14.23 44.156 16.897 47.12 2.668 2.963 1.483 29.93 1.483 29.93l48.023 2.669 43.667-81.099-53.153-52.852-22.777 41.789s-3.007-1.184-3.714-1.96c-3.297-3.62-3.721-8.99-1.308-19.541.811-3.546 1.19-8.16 1.033-10.874"/>
        <path fill="#211D4C" d="M194.785 244.934h-61.864a8.474 8.474 0 0 1-8.475-8.473V111.963a8.474 8.474 0 0 1 8.475-8.472h61.864a8.474 8.474 0 0 1 8.475 8.472v124.498a8.474 8.474 0 0 1-8.475 8.473"/>
        <rect width="76.206" height="138.454" x="125.844" y="104.889" fill="#FFF" rx="7"/>
        <path fill="#211D4C" d="M146.818 104.89h34.258l-2.364 4.73a.7.7 0 0 1-.632.387l-27.61-.22a.7.7 0 0 1-.576-.31l-3.076-4.588z"/>
        <g fill="#CDD8E8" transform="translate(135.632 127.965)">
            <rect width="13.983" height="13.985" rx=".7"/>
            <rect width="37.753" height="4.196" x="18.877" rx=".7"/>
            <rect width="37.753" height="4.196" x="18.877" y="6.293" rx=".7"/>
        </g>
        <g fill="#CDD8E8" transform="translate(135.632 151.74)">
            <rect width="13.983" height="13.985" rx=".7"/>
            <rect width="37.753" height="4.196" x="18.877" rx=".7"/>
            <rect width="37.753" height="4.196" x="18.877" y="6.293" rx=".7"/>
        </g>
        <g fill="#CDD8E8" transform="translate(135.632 175.515)">
            <rect width="13.983" height="13.985" rx=".7"/>
            <rect width="37.753" height="4.196" x="18.877" rx=".7"/>
            <rect width="37.753" height="4.196" x="18.877" y="6.293" rx=".7"/>
        </g>
        <g fill="#CDD8E8" transform="translate(135.632 199.29)">
            <rect width="13.983" height="13.985" rx=".7"/>
            <rect width="37.753" height="4.196" x="18.877" rx=".7"/>
            <rect width="37.753" height="4.196" x="18.877" y="6.293" rx=".7"/>
        </g>
        <g fill="#CDD8E8" transform="translate(135.632 223.065)">
            <rect width="13.983" height="13.985" rx=".7"/>
            <rect width="37.753" height="4.196" x="18.877" rx=".7"/>
            <rect width="37.753" height="4.196" x="18.877" y="6.293" rx=".7"/>
        </g>
        <path fill="#6FA5F1" d="M167.376 180.909c-3.276-13.548 6.481-14.204 16.452-17.194 9.97-2.99 24.178-7.974 26.422-7.227 2.243.748 4.93 10.741 2.687 13.77-2.244 3.027-21.692 12.892-30.739 15.703-3.515 1.092-12.063 6.354-14.822-5.052"/>
        <path fill="#6FA5F1" d="M171.6 204.208c-4.03-11.887 3.406-14.12 12.876-18.44 9.47-4.321 22.867-11.194 25.191-10.759 2.325.435 6.348 9.97 4.54 13.275-1.81 3.305-19.733 15.727-28.312 19.744-3.333 1.56-10.721 6.722-14.295-3.82"/>
        <path fill="#6FA5F1" d="M185.478 221.186c-3.542-7.092-1.131-11.077 4.92-14.894 7.536-4.754 18.177-12.022 20.199-11.908 2.02.114 6.488 7.764 5.316 10.77-1.173 3.004-9.873 13.31-16.975 17.224-3.653 2.014-11.116 3.502-13.46-1.192"/>
        <path fill="#FFF" d="M169.786 172.275s14.317-5.581 16.088 2.986c1.688 8.166-13.064 10.603-13.064 10.603s-1.81-2.717-2.658-6.728c-.786-3.723-.366-6.861-.366-6.861M174.24 195.252s13.622-7.113 16.319 1.21c2.57 7.933-11.827 11.967-11.827 11.967s-2.096-2.503-3.377-6.398c-1.19-3.614-1.114-6.78-1.114-6.78M187.749 211.07s11.689-6.103 14.003 1.038c2.207 6.808-10.149 10.27-10.149 10.27s-1.798-2.148-2.898-5.49c-1.02-3.102-.956-5.818-.956-5.818M149.402 284.659h-43.309v14.867h52.853z"/>
        <path fill="#3F577C" d="M97.574 296.348l69.156 1.087s6.45 69.898-1.165 80.49H89.96s10.335-48.136 7.615-81.577"/>
        <path fill="#8BB6F4" d="M140.747 162.754c5.39-1.106 7.403 4.616 10.713 13.087 8.66 22.163 15.367 64.504 18.842 64.643 4.803.192 5.187-3.841 10.566-3.649 5.379.192 7.877 4.61 11.527 4.61 3.65 0 5.5-5.378 10.915-5.185 5.414.19 4.454 3.84 7.911 4.224 3.458.385 4.035-3.073 6.34-1.537 2.305 1.537 7.108 17.861 3.843 33.033-3.266 15.172-3.24 22.021-10.13 29.192-5.775 6.008-6.595 7.989-6.097 11.718.497 3.73 2.734 53.074 2.734 53.074l-40.289-1.36s1.097-11.377 1.196-24.76c.105-14.082 1.872-30.257-1.444-32.424-6.466-4.226-7.846-.094-14.312-7.055-6.466-6.961-19.013-17.807-19.511-21.039-.498-3.232-2.736-17.404 0-17.901 2.736-.497 9.876-6.281 11.937-8.453 3.263-3.438 3.516-7.17 3.234-13.923-.347-8.26-7.463-40.767-11.903-60.216-1.578-6.912-4.937-14.258 3.928-16.079"/>
        <path fill="#FFF" d="M145.144 166.09s4.21 9.314-1.421 10.79c-5.369 1.407-7.505-8.307-7.505-8.307s1.743-1.297 4.379-2c2.447-.653 4.547-.484 4.547-.484"/>
        <path fill="#F4F6F8" d="M176.693 56.45c0 6.862-5.565 12.425-12.43 12.425-6.864 0-12.429-5.563-12.429-12.425 0-6.863 5.565-12.426 12.43-12.426 6.864 0 12.43 5.563 12.43 12.426"/>
        <path fill="#1D1D1D" d="M166.526 61.098l-4.59-7.04v7.04h-1.574v-9.296h2.007l4.223 6.595v-6.595h1.574v9.296z"/>
        <path fill="#1D1D1D" d="M159.318 55.519h9.891V54.29h-9.89zM159.318 58.203h9.891v-1.228h-9.89z"/>
    </g>
</svg>
