<?xml version="1.0" encoding="UTF-8"?>
<svg width="819px" height="851px" viewBox="0 0 819 851" version="1.1" xmlns="http://www.w3.org/2000/svg" xmlns:xlink="http://www.w3.org/1999/xlink">
    <!-- Generator: Sketch 48.1 (47250) - http://www.bohemiancoding.com/sketch -->
    <title>Hero BG - Home</title>
    <desc>Created with Sketch.</desc>
    <defs>
        <rect id="path-1" x="0" y="0" width="1440" height="851"></rect>
        <polygon id="path-3" points="3.79650264e-20 1.37644839 3.79650264e-20 247.582561 333.942813 247.582561 333.942813 1.37644839"></polygon>
        <polygon id="path-5" points="248.978921 313.34008 248.978921 1.04101962 0.457861879 1.04101962 0.457861879 313.34008 248.978921 313.34008"></polygon>
        <polygon id="path-7" points="113.936128 312.319892 1.19280397 312.319892 1.19280397 0.743125269 113.936128 0.743125269"></polygon>
        <polygon id="path-9" points="0 1144.75779 845.66104 1144.75779 845.66104 108 0 108"></polygon>
        <path d="M19.8824007,0.478592217 C9.85855391,18.271807 2.99352616,42.8124428 1.16740284,71.1457712 L19.8824007,71.1457712 L19.8824007,0.478592217 Z" id="path-11"></path>
        <path d="M13.2762672,0.312179839 C6.86896249,16.1907608 2.55510987,35.576431 1.16595967,57.1628035 L21.7312748,57.1628035 L21.7312748,0.312179839 L13.2762672,0.312179839 Z" id="path-13"></path>
        <path d="M0.707179085,109.504382 C0.661683099,105.795375 0.708551618,102.071681 0.851602649,98.3429516 C2.55116426,53.3121483 16.8441326,16.9930738 36.5923193,0.604051882 L85.2935568,0.604051882 C88.3473729,2.91911554 91.3064684,5.61201705 94.1532169,8.64622915 L94.1532169,109.504382 L0.707178803,109.504359 L0.707179085,109.504382 Z" id="path-15"></path>
        <path d="M34.5941232,9.18186396 C29.9743738,5.92564823 25.1497677,3.53011806 20.1793411,2.1176129 C17.2575596,1.34451613 14.3651921,0.969172043 11.5176457,0.969172043 C7.7928895,0.969172043 4.14269106,1.6113779 0.598091071,2.84700632 L0.598091071,85.4075918 L34.5941232,85.4075918 L34.5941232,9.18186396 Z" id="path-17"></path>
    </defs>
    <g id="Home---Landing-(with-Header-Image)-Copy" stroke="none" stroke-width="1" fill="none" fill-rule="evenodd" transform="translate(-602.000000, -68.000000)">
        <g id="Hero-BG---Home" transform="translate(0.000000, 68.000000)">
            <mask id="mask-2" fill="white">
                <use xlink:href="#path-1"></use>
            </mask>
            <g id="Mask"></g>
            <g opacity="0.207484149" mask="url(#mask-2)">
                <g transform="translate(602.000000, -154.000000)">
                    <g id="Group-99" transform="translate(0.000000, 0.359938)">
                        <path d="M799.140424,793.897139 L69.7651659,793.897139 C59.1551493,793.897139 50.5550831,785.297838 50.5550831,774.690166 L50.5550831,213.287456 C50.5550831,202.679784 59.1551493,194.080483 69.7651659,194.080483 L799.140424,194.080483 C809.74904,194.080483 818.350507,202.679784 818.350507,213.287456 L818.350507,774.690166 C818.350507,785.297838 809.74904,793.897139 799.140424,793.897139 Z" id="Fill-1" fill="#FFFFFF"></path>
                        <g id="Group-5" transform="translate(0.000000, 614.836022)">
                            <mask id="mask-4" fill="white">
                                <use xlink:href="#path-3"></use>
                            </mask>
                            <g id="Clip-4"></g>
                            <polygon id="Fill-3" fill="#365279" mask="url(#mask-4)" points="-0.00028013245 196.827077 308.116001 1.37644839 333.942813 44.1180559 24.9343093 247.582561"></polygon>
                        </g>
                        <g id="Group-8" transform="translate(596.682119, 0.000000)">
                            <mask id="mask-6" fill="white">
                                <use xlink:href="#path-5"></use>
                            </mask>
                            <g id="Clip-7"></g>
                            <path d="M204.912265,1.04101962 C204.912265,1.04101962 131.290656,119.287012 116.799404,130.879262 C102.306752,142.471512 10.7174474,181.30702 3.18188444,209.1301 C-4.35507914,236.95178 5.54620232,313.005176 11.1852685,313.337103 C16.8229341,313.66903 22.7925566,286.144264 22.7925566,279.512719 C22.7925566,272.879772 19.1438315,238.058205 21.7980864,232.421041 C24.4509407,226.783877 54.9629672,202.575584 63.5868447,219.156549 C72.2093215,235.737514 75.5246891,258.619498 70.5495368,263.594208 C65.5757851,268.568917 41.0333811,276.526772 35.7276725,284.486028 C30.4205632,292.445283 28.7621791,296.42421 30.7525202,298.414374 C32.7414606,300.404538 93.1030003,273.542227 96.4197685,264.256662 C99.7351361,254.972498 116.318977,189.311092 119.303788,185.994619 C122.2886,182.678146 214.819149,138.240487 248.979901,90.1558288 L204.912265,1.04101962 Z" id="Fill-6" fill="#C4DAF9" mask="url(#mask-6)"></path>
                        </g>
                        <path d="M689.423749,119.395973 C684.685308,117.311973 608.74,319.083229 608.74,319.083229 L610.408189,335.084371 L619.743603,322.749836 C619.743603,322.749836 697.757689,123.062581 689.423749,119.395973" id="Fill-9" fill="#365279"></path>
                        <polygon id="Fill-11" fill="#365279" points="171.710827 308.785916 193.402883 370.32694 199.372506 374.478134 174.979973 307.249526"></polygon>
                        <polygon id="Fill-13" fill="#365279" points="179.441923 299.973733 236.186952 332.195902 239.217985 338.80644 177.352134 302.920464"></polygon>
                        <polygon id="Fill-15" fill="#365279" points="231.208859 301.639533 162.160412 357.182054 160.532842 355.158277 229.579888 299.615756"></polygon>
                        <polygon id="Fill-17" fill="#365279" points="162.518981 293.229584 150.421461 280.056127 153.638782 277.100993 165.736302 290.27585"></polygon>
                        <path d="M170.728683,305.856271 C166.906275,305.856271 163.796805,302.761083 163.796805,298.937615 C163.796805,295.114148 166.906275,292.004954 170.728683,292.004954 C174.552491,292.004954 177.647954,295.114148 177.647954,298.937615 C177.647954,302.761083 174.552491,305.856271 170.728683,305.856271 M170.728683,289.147857 C165.30812,289.147857 160.924047,293.53154 160.924047,298.937615 C160.924047,304.343691 165.30812,308.727373 170.728683,308.727373 C176.135239,308.727373 180.519312,304.343691 180.519312,298.937615 C180.519312,293.53154 176.135239,289.147857 170.728683,289.147857" id="Fill-19" fill="#365279"></path>
                        <g id="Group-23" transform="translate(641.503311, 725.478495)">
                            <mask id="mask-8" fill="white">
                                <use xlink:href="#path-7"></use>
                            </mask>
                            <g id="Clip-22"></g>
                            <path d="M45.9999894,27.6348484 C30.3405854,25.03405 26.0195424,82.4841038 21.9562212,93.9447032 C17.8943007,105.405303 0.568108609,143.595163 1.7446649,159.274182 C2.92122119,174.953201 11.7986185,201.689464 10.9750291,215.09401 C10.1528404,228.497155 1.19280397,305.369865 1.19280397,305.369865 L74.3395887,312.320733 C74.3395887,312.320733 58.0288768,222.497252 65.0405921,211.437206 C72.0537079,200.378561 117.070993,123.406413 113.762628,110.941628 C110.452864,98.4782435 103.850142,55.0293645 100.25044,52.0364156 C96.6535391,49.0448672 68.126251,14.2863242 60.1382742,12.0384613 C47.1373272,8.37885645 28.6345788,0.743125269 28.6345788,0.743125269 C28.6345788,0.743125269 24.8878073,10.8690124 34.9179497,18.8338699 C38.292145,21.5130984 45.2128172,24.0956898 51.2244596,29.8378941 C64.9593536,42.9567301 79.9898603,62.2519371 80.1915556,63.3233484 C80.4828934,64.8653403 81.1412046,100.496418 81.0067411,101.479596 C80.8722775,102.462773 65.600857,137.427195 47.5281119,141.476149 C47.5281119,141.476149 48.0645656,105.458523 46.6681053,99.8451683 C44.873857,92.6352005 62.6454596,30.4009102 45.9999894,27.6348484" id="Fill-21" fill="#C4DAF9" mask="url(#mask-8)"></path>
                        </g>
                        <path d="M688.620889,817.909357 L697.265776,817.909357 L700.117525,662.700376 L685.425978,662.430072 C687.54378,694.972964 687.503161,753.113483 687.503161,753.113483 C696.656488,755.06023 695.05273,774.784002 692.772452,792.20669 C691.293353,803.507628 689.748422,808.912303 688.620889,817.909357" id="Fill-24" fill="#365279"></path>
                        <path d="M759.385708,595.838009 C754.52541,631.523708 721.664473,656.509299 685.976999,651.649433 C650.286724,646.789568 625.30031,613.932955 630.160608,578.247256 C635.0069,542.561557 667.880443,517.575966 703.567916,522.435831 C739.258191,527.281691 764.246006,560.15231 759.385708,595.838009 M705.068025,511.399595 C663.286271,505.713412 624.810078,534.970643 619.121989,576.748681 C613.436701,618.526718 642.695135,656.999487 684.47829,662.68567 C726.260045,668.371853 764.734837,639.114622 770.422926,597.336584 C776.108214,555.558546 746.84978,517.085777 705.068025,511.399595" id="Fill-26" fill="#365279"></path>
                        <path d="M282.602518,964.773655 C282.602518,964.773655 213.900035,851.62702 206.626396,832.230974 C199.351356,812.834929 212.285071,761.110273 212.285071,753.837281 C212.285071,746.562888 208.629343,741.464931 208.629343,741.464931 C207.255293,738.771698 199.419988,759.034676 182.529402,733.287192 C164.194733,705.343665 187.592796,692.665999 187.592796,692.665999 C187.592796,692.665999 172.905452,685.940617 170.979541,687.864956 C169.055031,689.789294 167.514303,697.102902 163.665283,699.027241 C159.814863,700.95298 119.778333,710.190926 116.313094,713.270708 C112.849257,716.350491 100.915614,739.831905 100.915614,741.371095 C100.915614,742.910286 106.305363,804.500329 137.872088,814.508571 L187.592796,972.611063 L282.602518,964.773655 Z" id="Fill-28" fill="#C4DAF9"></path>
                        <path d="M202.228596,855.620653 C202.228596,866.882376 193.097679,876.012481 181.834954,876.012481 C170.570828,876.012481 161.441312,866.882376 161.441312,855.620653 C161.441312,844.35893 170.570828,835.228825 181.834954,835.228825 C193.097679,835.228825 202.228596,844.35893 202.228596,855.620653" id="Fill-30" fill="#365279"></path>
                        <path d="M206.626256,832.230694 C206.896583,834.79788 152.817014,854.521651 148.629034,848.713622 C147.56453,848.902694 151.678275,866.693724 154.465593,867.272146 C156.122577,867.616678 211.514567,858.497778 213.811653,845.5316 C213.270997,838.436477 206.626256,832.230694 206.626256,832.230694" id="Fill-32" fill="#365279"></path>
                        <mask id="mask-10" fill="white">
                            <use xlink:href="#path-9"></use>
                        </mask>
                        <g id="Clip-35"></g>
                        <polygon id="Stroke-34" stroke="#365279" stroke-width="1.4" mask="url(#mask-10)" points="392.049566 577.140551 476.241974 577.140551 476.241974 412.793062 392.049566 412.793062"></polygon>
                        <polygon id="Stroke-36" stroke="#365279" stroke-width="1.4" mask="url(#mask-10)" points="390.461215 530.614691 477.827523 530.614691 477.827523 512.004347 390.461215 512.004347"></polygon>
                        <path d="M476.241413,512.004067 L392.049006,512.004067 L392.049006,471.252623 C392.049006,450.705335 408.707082,434.047341 429.257599,434.047341 L439.032821,434.047341 C459.581936,434.047341 476.241413,450.705335 476.241413,471.252623 L476.241413,512.004067 Z" id="Stroke-37" stroke="#365279" stroke-width="1.4" mask="url(#mask-10)"></path>
                        <polygon id="Stroke-38" stroke="#365279" stroke-width="1.4" mask="url(#mask-10)" points="392.049566 577.140551 476.241974 577.140551 476.241974 530.614691 392.049566 530.614691"></polygon>
                        <polygon id="Stroke-39" stroke="#365279" stroke-width="1.4" mask="url(#mask-10)" points="419.597791 577.140551 421.530705 577.140551 421.530705 530.614691 419.597791 530.614691"></polygon>
                        <polygon id="Stroke-40" stroke="#365279" stroke-width="1.4" mask="url(#mask-10)" points="446.851877 577.140551 448.784791 577.140551 448.784791 530.614691 446.851877 530.614691"></polygon>
                        <polygon id="Stroke-41" stroke="#365279" stroke-width="1.4" mask="url(#mask-10)" points="494.131232 574.761038 649.129917 574.761038 649.129917 488.972505 494.131232 488.972505"></polygon>
                        <polygon id="Stroke-42" stroke="#365279" stroke-width="1.4" mask="url(#mask-10)" points="494.131232 574.761038 650.95498 574.761038 650.95498 548.255863 494.131232 548.255863"></polygon>
                        <polygon id="Stroke-43" stroke="#365279" stroke-width="1.4" mask="url(#mask-10)" points="494.131232 488.972505 650.95498 488.972505 650.95498 479.521677 494.131232 479.521677"></polygon>
                        <polygon id="Stroke-44" stroke="#365279" stroke-width="1.4" mask="url(#mask-10)" points="511.743159 569.03564 534.478709 569.03564 534.478709 507.228513 511.743159 507.228513"></polygon>
                        <polygon id="Stroke-45" stroke="#365279" stroke-width="1.4" mask="url(#mask-10)" points="513.884772 567.231747 532.334295 567.231747 532.334295 518.924403 513.884772 518.924403"></polygon>
                        <polygon id="Stroke-46" stroke="#365279" stroke-width="1.4" mask="url(#mask-10)" points="513.884772 535.254672 532.334295 535.254672 532.334295 533.526409 513.884772 533.526409"></polygon>
                        <polygon id="Stroke-47" stroke="#365279" stroke-width="1.4" mask="url(#mask-10)" points="513.884772 552.265602 532.334295 552.265602 532.334295 550.537339 513.884772 550.537339"></polygon>
                        <polygon id="Stroke-48" stroke="#365279" stroke-width="1.4" mask="url(#mask-10)" points="522.459626 567.231747 523.760841 567.231747 523.760841 518.924403 522.459626 518.924403"></polygon>
                        <polygon id="Stroke-49" stroke="#365279" stroke-width="1.4" mask="url(#mask-10)" points="521.657046 503.91204 524.564821 503.91204 524.564821 494.847761 521.657046 494.847761"></polygon>
                        <polygon id="Stroke-50" stroke="#365279" stroke-width="1.4" mask="url(#mask-10)" points="558.860036 569.03564 581.595586 569.03564 581.595586 507.228513 558.860036 507.228513"></polygon>
                        <polygon id="Stroke-51" stroke="#365279" stroke-width="1.4" mask="url(#mask-10)" points="561.00305 567.231747 579.452573 567.231747 579.452573 518.924403 561.00305 518.924403"></polygon>
                        <polygon id="Stroke-52" stroke="#365279" stroke-width="1.4" mask="url(#mask-10)" points="561.00305 535.254672 579.452573 535.254672 579.452573 533.526409 561.00305 533.526409"></polygon>
                        <polygon id="Stroke-53" stroke="#365279" stroke-width="1.4" mask="url(#mask-10)" points="561.00305 552.265602 579.452573 552.265602 579.452573 550.537339 561.00305 550.537339"></polygon>
                        <polygon id="Stroke-54" stroke="#365279" stroke-width="1.4" mask="url(#mask-10)" points="569.576503 567.231747 570.879119 567.231747 570.879119 518.924403 569.576503 518.924403"></polygon>
                        <polygon id="Stroke-55" stroke="#365279" stroke-width="1.4" mask="url(#mask-10)" points="568.773924 503.91204 571.681699 503.91204 571.681699 494.847761 568.773924 494.847761"></polygon>
                        <polygon id="Stroke-56" stroke="#365279" stroke-width="1.4" mask="url(#mask-10)" points="605.978315 569.03564 628.712464 569.03564 628.712464 507.228513 605.978315 507.228513"></polygon>
                        <polygon id="Stroke-57" stroke="#365279" stroke-width="1.4" mask="url(#mask-10)" points="608.121328 567.231747 626.56945 567.231747 626.56945 518.924403 608.121328 518.924403"></polygon>
                        <polygon id="Stroke-58" stroke="#365279" stroke-width="1.4" mask="url(#mask-10)" points="608.121328 535.254672 626.56945 535.254672 626.56945 533.526409 608.121328 533.526409"></polygon>
                        <polygon id="Stroke-59" stroke="#365279" stroke-width="1.4" mask="url(#mask-10)" points="608.121328 552.265602 626.56945 552.265602 626.56945 550.537339 608.121328 550.537339"></polygon>
                        <polygon id="Stroke-60" stroke="#365279" stroke-width="1.4" mask="url(#mask-10)" points="616.694781 567.231747 617.995997 567.231747 617.995997 518.924403 616.694781 518.924403"></polygon>
                        <polygon id="Stroke-61" stroke="#365279" stroke-width="1.4" mask="url(#mask-10)" points="615.892202 503.91204 618.798576 503.91204 618.798576 494.847761 615.892202 494.847761"></polygon>
                        <polygon id="Stroke-62" stroke="#365279" stroke-width="1.4" mask="url(#mask-10)" points="476.241974 578.626522 494.131232 578.626522 494.131232 412.793062 476.241974 412.793062"></polygon>
                        <polygon id="Stroke-63" stroke="#365279" stroke-width="1.4" mask="url(#mask-10)" points="474.107364 412.793062 496.26444 412.793062 496.26444 404.182556 474.107364 404.182556"></polygon>
                        <polygon id="Stroke-64" stroke="#365279" stroke-width="1.4" mask="url(#mask-10)" points="474.107364 578.626522 496.26444 578.626522 496.26444 547.164844 474.107364 547.164844"></polygon>
                        <polygon id="Stroke-65" stroke="#365279" stroke-width="1.4" mask="url(#mask-10)" points="219.775113 574.761038 374.773798 574.761038 374.773798 488.972505 219.775113 488.972505"></polygon>
                        <polygon id="Stroke-66" stroke="#365279" stroke-width="1.4" mask="url(#mask-10)" points="217.95005 574.761038 374.773798 574.761038 374.773798 548.255863 217.95005 548.255863"></polygon>
                        <polygon id="Stroke-67" stroke="#365279" stroke-width="1.4" mask="url(#mask-10)" points="217.95005 488.972505 374.773798 488.972505 374.773798 479.521677 217.95005 479.521677"></polygon>
                        <polygon id="Stroke-68" stroke="#365279" stroke-width="1.4" mask="url(#mask-10)" points="334.427722 569.03564 357.163272 569.03564 357.163272 507.228513 334.427722 507.228513"></polygon>
                        <polygon id="Stroke-69" stroke="#365279" stroke-width="1.4" mask="url(#mask-10)" points="336.570735 567.231747 355.020258 567.231747 355.020258 518.924403 336.570735 518.924403"></polygon>
                        <polygon id="Stroke-70" stroke="#365279" stroke-width="1.4" mask="url(#mask-10)" points="336.570735 535.254672 355.020258 535.254672 355.020258 533.526409 336.570735 533.526409"></polygon>
                        <polygon id="Stroke-71" stroke="#365279" stroke-width="1.4" mask="url(#mask-10)" points="336.570735 552.265602 355.020258 552.265602 355.020258 550.537339 336.570735 550.537339"></polygon>
                        <polygon id="Stroke-72" stroke="#365279" stroke-width="1.4" mask="url(#mask-10)" points="345.144189 567.231747 346.445404 567.231747 346.445404 518.924403 345.144189 518.924403"></polygon>
                        <polygon id="Stroke-73" stroke="#365279" stroke-width="1.4" mask="url(#mask-10)" points="344.341609 503.91204 347.249384 503.91204 347.249384 494.847761 344.341609 494.847761"></polygon>
                        <polygon id="Stroke-74" stroke="#365279" stroke-width="1.4" mask="url(#mask-10)" points="287.309444 569.03564 310.044993 569.03564 310.044993 507.228513 287.309444 507.228513"></polygon>
                        <polygon id="Stroke-75" stroke="#365279" stroke-width="1.4" mask="url(#mask-10)" points="289.452457 567.231747 307.90198 567.231747 307.90198 518.924403 289.452457 518.924403"></polygon>
                        <polygon id="Stroke-76" stroke="#365279" stroke-width="1.4" mask="url(#mask-10)" points="289.452457 535.254672 307.90198 535.254672 307.90198 533.526409 289.452457 533.526409"></polygon>
                        <polygon id="Stroke-77" stroke="#365279" stroke-width="1.4" mask="url(#mask-10)" points="289.452457 552.265602 307.90198 552.265602 307.90198 550.537339 289.452457 550.537339"></polygon>
                        <polygon id="Stroke-78" stroke="#365279" stroke-width="1.4" mask="url(#mask-10)" points="298.027311 567.231747 299.328526 567.231747 299.328526 518.924403 298.027311 518.924403"></polygon>
                        <polygon id="Stroke-79" stroke="#365279" stroke-width="1.4" mask="url(#mask-10)" points="297.223331 503.91204 300.131106 503.91204 300.131106 494.847761 297.223331 494.847761"></polygon>
                        <polygon id="Stroke-80" stroke="#365279" stroke-width="1.4" mask="url(#mask-10)" points="240.192566 569.03564 262.926715 569.03564 262.926715 507.228513 240.192566 507.228513"></polygon>
                        <polygon id="Stroke-81" stroke="#365279" stroke-width="1.4" mask="url(#mask-10)" points="242.335579 567.231747 260.783702 567.231747 260.783702 518.924403 242.335579 518.924403"></polygon>
                        <polygon id="Stroke-82" stroke="#365279" stroke-width="1.4" mask="url(#mask-10)" points="242.335579 535.254672 260.783702 535.254672 260.783702 533.526409 242.335579 533.526409"></polygon>
                        <polygon id="Stroke-83" stroke="#365279" stroke-width="1.4" mask="url(#mask-10)" points="242.335579 552.265602 260.783702 552.265602 260.783702 550.537339 242.335579 550.537339"></polygon>
                        <polygon id="Stroke-84" stroke="#365279" stroke-width="1.4" mask="url(#mask-10)" points="250.910434 567.231747 252.211649 567.231747 252.211649 518.924403 250.910434 518.924403"></polygon>
                        <polygon id="Stroke-85" stroke="#365279" stroke-width="1.4" mask="url(#mask-10)" points="250.106454 503.91204 253.012828 503.91204 253.012828 494.847761 250.106454 494.847761"></polygon>
                        <polygon id="Stroke-86" stroke="#365279" stroke-width="1.4" mask="url(#mask-10)" points="374.775199 578.626522 392.665858 578.626522 392.665858 412.793062 374.775199 412.793062"></polygon>
                        <polygon id="Stroke-87" stroke="#365279" stroke-width="1.4" mask="url(#mask-10)" points="372.640589 412.793062 394.797666 412.793062 394.797666 404.182556 372.640589 404.182556"></polygon>
                        <polygon id="Stroke-88" stroke="#365279" stroke-width="1.4" mask="url(#mask-10)" points="372.640589 578.626522 394.797666 578.626522 394.797666 547.164844 372.640589 547.164844"></polygon>
                        <polygon id="Stroke-89" stroke="#365279" stroke-width="1.4" mask="url(#mask-10)" points="146.491063 583.794505 722.412566 583.794505 722.412566 574.761038 146.491063 574.761038"></polygon>
                        <path d="M702.356624,566.043111 C690.892203,567.34281 681.574998,563.495533 683.317422,555.8542 C685.059845,548.212866 684.657855,540.704584 683.719412,537.622001 C682.780968,534.538017 682.089041,532.795748 683.105922,529.30981 C684.121402,525.823872 691.855859,522.204883 692.480554,516.975275 C693.10665,511.747068 692.435733,503.434877 696.859024,502.899872 C701.283716,502.363466 700.993779,518.853396 703.820316,520.326762 C706.646852,521.802928 710.53509,523.678248 710.669554,527.031135 C710.802617,530.382622 708.121749,534.404966 709.32912,538.158407 C710.53509,541.911848 714.423329,543.386614 714.825319,548.614821 C715.227309,553.843028 714.825319,561.753264 711.606597,563.093579 C708.390676,564.435294 704.768564,565.770006 702.356624,566.043111 Z" id="Stroke-90" stroke="#365279" stroke-width="1.4" mask="url(#mask-10)"></path>
                        <path d="M698.949373,534.786052 C698.24624,534.786052 698.502561,575.306407 698.502561,575.306407 L698.945171,575.306407 C698.945171,575.306407 699.862604,534.786052 698.949373,534.786052 Z" id="Stroke-91" stroke="#365279" stroke-width="1.4" mask="url(#mask-10)"></path>
                        <path d="M688.901302,546.358274 C688.621169,546.638382 698.717143,556.716651 698.717143,556.716651 L699.276007,556.157836 C699.276007,556.157836 689.266875,545.994135 688.901302,546.358274 Z" id="Stroke-92" stroke="#365279" stroke-width="1.4" mask="url(#mask-10)"></path>
                        <path d="M706.145555,539.126458 C706.352853,539.333738 698.870515,546.802805 698.870515,546.802805 L698.455919,546.389647 C698.455919,546.389647 705.875227,538.856155 706.145555,539.126458 Z" id="Stroke-93" stroke="#365279" stroke-width="1.4" mask="url(#mask-10)"></path>
                        <path d="M190.595116,566.043111 C179.130695,567.34281 169.81349,563.495533 171.555914,555.8542 C173.298338,548.212866 172.896348,540.704584 171.957904,537.622001 C171.01946,534.538017 170.327533,532.795748 171.344414,529.30981 C172.359894,525.823872 180.094351,522.204883 180.719046,516.975275 C181.345142,511.747068 180.672825,503.434877 185.097517,502.899872 C189.522209,502.363466 189.232272,518.853396 192.058808,520.326762 C194.885344,521.802928 198.773583,523.678248 198.908046,527.031135 C199.041109,530.382622 196.360242,534.404966 197.567613,538.158407 C198.773583,541.911848 202.661821,543.386614 203.063811,548.614821 C203.465801,553.843028 203.063811,561.753264 199.845089,563.093579 C196.629169,564.435294 193.007056,565.770006 190.595116,566.043111 Z" id="Stroke-94" stroke="#365279" stroke-width="1.4" mask="url(#mask-10)"></path>
                        <path d="M187.187865,534.786052 C186.484732,534.786052 186.741054,575.306407 186.741054,575.306407 L187.183663,575.306407 C187.183663,575.306407 188.101097,534.786052 187.187865,534.786052 Z" id="Stroke-95" stroke="#365279" stroke-width="1.4" mask="url(#mask-10)"></path>
                        <path d="M177.139794,546.358274 C176.859662,546.638382 186.955635,556.716651 186.955635,556.716651 L187.514499,556.157836 C187.514499,556.157836 177.505367,545.994135 177.139794,546.358274 Z" id="Stroke-96" stroke="#365279" stroke-width="1.4" mask="url(#mask-10)"></path>
                        <path d="M194.384047,539.126458 C194.591345,539.333738 187.109008,546.802805 187.109008,546.802805 L186.694412,546.389647 C186.694412,546.389647 194.11372,538.856155 194.384047,539.126458 Z" id="Stroke-97" stroke="#365279" stroke-width="1.4" mask="url(#mask-10)"></path>
                        <path d="M630.151504,578.249217 C625.294007,613.934916 650.288825,646.802733 685.9791,651.658397 C721.669375,656.515461 754.538716,631.522867 759.394812,595.835768 C764.250908,560.150069 739.25609,527.282252 703.567216,522.426588 C667.878342,517.569523 635.009001,542.563518 630.151504,578.249217" id="Fill-98" fill="#F4F6F8" mask="url(#mask-10)"></path>
                    </g>
                    <g id="Group-286" transform="translate(638.701987, 521.359938)">
                        <g id="Group-120" transform="translate(0.000000, 30.811828)">
                            <mask id="mask-12" fill="white">
                                <use xlink:href="#path-11"></use>
                            </mask>
                            <g id="Clip-119"></g>
                            <path d="M-139.961175,58.6305669 C-86.0776987,65.9077605 -32.4617483,70.4216933 19.8824007,71.1457712 C17.5937185,16.5976315 15.3064371,-37.9491078 13.0163543,-92.4972476 C-37.5573576,-92.0518766 -89.3580497,-89.2732099 -141.417864,-84.7956911 C-140.931834,-36.9869384 -140.447205,10.8218142 -139.961175,58.6305669 Z" id="Stroke-118" stroke="#365279" stroke-width="1.4" mask="url(#mask-12)"></path>
                        </g>
                        <g id="Group-123" transform="translate(0.000000, 44.817204)">
                            <mask id="mask-14" fill="white">
                                <use xlink:href="#path-13"></use>
                            </mask>
                            <g id="Clip-122"></g>
                            <path d="M-139.961175,44.6251906 C-85.4431987,51.9878169 -31.198351,56.5227578 21.7312748,57.1628035 C21.0183377,40.3073331 20.304,23.4504621 19.5910629,6.59359113 C-32.7853013,6.27286801 -86.4642815,4.00119597 -140.410788,0.312179839 C-140.260917,15.0836503 -140.111046,29.8537202 -139.961175,44.6251906 Z" id="Stroke-121" stroke="#365279" stroke-width="1.4" mask="url(#mask-14)"></path>
                        </g>
                        <g id="Group-264" transform="translate(0.000000, 9.803763)">
                            <mask id="mask-16" fill="white">
                                <use xlink:href="#path-15"></use>
                            </mask>
                            <g id="Clip-263"></g>
                            <path d="M94.1532169,107.480479 C-95.7093526,120.931243 -309.78377,65.2528691 -496.332373,2.26508952 C-495.961197,1.71047661 -495.591422,1.15726425 -495.218846,0.604051882 C-309.332757,54.4365169 -96.018899,102.021184 93.1685513,90.5255707 C93.4963063,96.1767401 93.8254619,101.82931 94.1532169,107.480479 Z" id="Stroke-262" stroke="#365279" stroke-width="1.4" mask="url(#mask-16)"></path>
                        </g>
                        <g id="Group-267" transform="translate(49.023179, 0.000000)">
                            <mask id="mask-18" fill="white">
                                <use xlink:href="#path-17"></use>
                            </mask>
                            <g id="Clip-266"></g>
                            <path d="M23.41305,84.7935903 C12.1783381,87.6464855 2.4969606,80.4281145 3.53064934,65.8373134 C4.54332815,51.250714 3.43400364,36.9568269 2.21962947,31.0843726 C1.0052553,25.2161199 0.163457285,21.8940446 0.837175828,15.247093 C1.51789768,8.59593978 8.74671556,1.69549086 8.83915927,-8.24132366 C8.93860629,-18.1781382 7.48191755,-34.0014124 11.7119175,-34.9635817 C15.9349142,-35.9215495 17.3145666,-4.64894462 20.2139374,-1.85767312 C23.110507,0.942001613 27.0799838,4.48256075 27.5604109,10.8101898 C28.0450401,17.1364183 25.8460003,24.7623457 27.4119407,31.8462651 C28.9820831,38.9245823 32.9361526,41.6318215 33.884401,51.4719989 C34.8312487,61.3149774 35.2836626,76.2307032 32.2498281,78.8875231 C29.2201957,81.5401414 25.7759672,84.1955608 23.41305,84.7935903 Z" id="Stroke-265" stroke="#365279" stroke-width="1.4" mask="url(#mask-18)"></path>
                        </g>
                        <path d="M65.9389768,25.578439 C65.2526523,25.5854417 69.5358775,102.493165 69.5372781,102.494565 C69.6857483,102.488963 69.8314172,102.483361 69.9784868,102.479159 C69.9840894,102.473557 66.838202,25.5672347 65.9389768,25.578439 Z" id="Stroke-268" stroke="#365279" stroke-width="1.4"></path>
                        <path d="M57.1862384,47.6807435 C56.9299172,48.2409586 67.8943013,67.2280473 67.8985033,67.2042382 C68.0651821,66.8471011 68.2304603,66.4885634 68.3957384,66.1300258 C68.3887351,66.1552355 57.5069901,47.0084855 57.1862384,47.6807435 Z" id="Stroke-270" stroke="#365279" stroke-width="1.4"></path>
                        <path d="M73.4236957,33.7225653 C73.6576063,34.1049121 67.0702917,48.3777911 67.0604871,48.3861944 C66.9106162,48.1270949 66.7607454,47.8665949 66.6108745,47.6074954 C66.6206791,47.5976917 73.1393613,33.2071675 73.4236957,33.7225653 Z" id="Stroke-272" stroke="#365279" stroke-width="1.4"></path>
                    </g>
                </g>
            </g>
        </g>
    </g>
</svg>