<svg xmlns="http://www.w3.org/2000/svg" width="16" height="15" viewBox="0 0 16 15">
    <path fill="#707070" fill-rule="nonzero" d="M5.203 0C2.857 0 .949 1.902.949 4.24v6.52c0 2.338 1.908 4.24 4.254 4.24h6.543C14.092 15 16 13.098 16 10.76V4.24C16 1.901 14.092 0 11.746 0H5.203zm0 .652h6.543c1.992 0 3.6 1.603 3.6 3.587v6.522a3.589 3.589 0 0 1-3.6 3.587H5.203a3.589 3.589 0 0 1-3.6-3.587V4.239a3.589 3.589 0 0 1 3.6-3.587zm7.525 1.957a.653.653 0 1 0 0 1.304.653.653 0 1 0 0-1.304zm-4.254.978A3.924 3.924 0 0 0 4.548 7.5a3.924 3.924 0 0 0 3.926 3.913A3.924 3.924 0 0 0 12.401 7.5a3.924 3.924 0 0 0-3.927-3.913zm0 .652a3.261 3.261 0 1 1 0 6.522 3.261 3.261 0 1 1 0-6.522z"/>
</svg>
