<svg xmlns="http://www.w3.org/2000/svg" width="15" height="13" viewBox="0 0 15 13">
    <g fill="none" fill-rule="evenodd">
        <path d="M-.122-1h15.05v15H-.121z"/>
        <path fill="#707070" fill-rule="nonzero" d="M9.791.91a2.965 2.965 0 0 0-2.967 2.956c0 .098.024.194.034.29-2.024-.193-3.813-1.164-5.028-2.65a.276.276 0 0 0-.454.034 2.926 2.926 0 0 0-.402 1.483c0 .655.236 1.255.599 1.747-.07-.031-.148-.048-.214-.085a.274.274 0 0 0-.402.238v.034c0 1.005.522 1.878 1.292 2.412-.009 0-.018.002-.026 0a.273.273 0 0 0-.308.35 2.97 2.97 0 0 0 2.052 1.934 5.126 5.126 0 0 1-3.232.69.273.273 0 0 0-.18.504 7.912 7.912 0 0 0 4.276 1.252c2.554 0 4.557-1.063 5.9-2.582 1.345-1.52 2.045-3.492 2.045-5.335 0-.078-.007-.154-.009-.23a5.72 5.72 0 0 0 1.3-1.355.273.273 0 0 0-.342-.4c-.141.062-.306.068-.453.118.194-.259.361-.538.462-.852a.274.274 0 0 0-.402-.315c-.468.276-.985.47-1.531.588-.53-.495-1.228-.827-2.01-.827zm0 .545c.698 0 1.329.297 1.77.767a.276.276 0 0 0 .257.076c.357-.07.696-.173 1.026-.307-.19.256-.425.475-.701.64a.273.273 0 0 0 .18.511c.273-.033.517-.144.778-.213-.234.252-.49.48-.77.682a.271.271 0 0 0-.111.238c.004.111.008.221.008.333 0 1.704-.656 3.555-1.907 4.969-1.25 1.413-3.087 2.403-5.49 2.403a7.34 7.34 0 0 1-3.053-.665c1.155-.088 2.22-.495 3.079-1.167a.272.272 0 0 0-.163-.486c-.902-.016-1.658-.54-2.06-1.279h.042c.27 0 .538-.034.787-.102a.274.274 0 0 0 .198-.27.274.274 0 0 0-.215-.258c-.974-.196-1.704-.987-1.873-1.969.276.095.558.17.864.179a.272.272 0 1 0 .162-.503 2.413 2.413 0 0 1-1.077-2.011c0-.311.08-.597.188-.87 1.368 1.497 3.284 2.491 5.447 2.6a.272.272 0 0 0 .282-.332 2.426 2.426 0 0 1-.068-.555 2.411 2.411 0 0 1 2.42-2.411z"/>
    </g>
</svg>
