<svg xmlns="http://www.w3.org/2000/svg" width="16" height="15" viewBox="0 0 16 15">
    <path fill="#707070" fill-rule="nonzero" d="M3.01 0A3.01 3.01 0 0 0 0 3v9c0 1.654 1.351 3 3.01 3h9.03a3.01 3.01 0 0 0 3.011-3V3c0-1.654-1.351-3-3.01-3H3.01zm0 .6h9.03A2.398 2.398 0 0 1 14.45 3v9c0 1.33-1.074 2.4-2.408 2.4h-1.806V8.7h1.458l.047-.253.3-1.8.057-.347h-1.862v-.6c0-.168.019-.18.075-.216.056-.036.227-.084.527-.084h1.204V3.384l-.207-.065S10.877 3 9.934 3c-.878 0-1.527.292-1.91.797-.383.505-.498 1.167-.498 1.903v.6h-.904v2.4h.904v5.7H3.01A2.398 2.398 0 0 1 .602 12V3C.602 1.67 1.676.6 3.01.6zm6.924 3c.653 0 1.257.155 1.505.225V4.8h-.602c-.347 0-.622.027-.856.178-.234.151-.348.44-.348.722v1.2h1.75l-.208 1.2H9.633v6.3H8.128V8.1h-.904V6.9h.904V5.7c0-.668.114-1.202.376-1.547.262-.344.676-.553 1.43-.553z"/>
</svg>
