<?xml version="1.0" encoding="UTF-8"?>
<svg width="423px" height="520px" viewBox="0 0 423 520" version="1.1" xmlns="http://www.w3.org/2000/svg" xmlns:xlink="http://www.w3.org/1999/xlink">
    <!-- Generator: Sketch 48.1 (47250) - http://www.bohemiancoding.com/sketch -->
    <title>Page 1</title>
    <desc>Created with Sketch.</desc>
    <defs>
        <polygon id="path-1" points="1.89825132e-20 0.688224194 1.89825132e-20 123.791281 166.971406 123.791281 166.971406 0.688224194"></polygon>
        <polygon id="path-3" points="124.48946 156.67004 124.48946 0.520509812 0.22893094 0.520509812 0.22893094 156.67004 124.48946 156.67004"></polygon>
        <polygon id="path-5" points="56.9680638 156.159946 0.596401987 156.159946 0.596401987 0.371562634 56.9680638 0.371562634"></polygon>
        <polygon id="path-7" points="0 518.899194 422.83052 518.899194 422.83052 0.520299731 0 0.520299731"></polygon>
        <path d="M9.94120033,0.239296108 C4.92927695,9.13590352 1.49676308,21.4062214 0.583701419,35.5728856 L9.94120033,35.5728856 L9.94120033,0.239296108 Z" id="path-9"></path>
        <path d="M6.63813358,0.156089919 C3.43448125,8.0953804 1.27755494,17.7882155 0.582979837,28.5814017 L10.8656374,28.5814017 L10.8656374,0.156089919 L6.63813358,0.156089919 Z" id="path-11"></path>
        <path d="M0.353589542,54.7521909 C0.330841549,52.8976875 0.354275809,51.0358403 0.425801325,49.1714758 C1.27558213,26.6560742 8.42206632,8.49653692 18.2961596,0.302025941 L42.6467784,0.302025941 C44.1736864,1.45955777 45.6532342,2.80600853 47.0766084,4.32311458 L47.0766084,54.7521909 L0.353589401,54.7521794 L0.353589542,54.7521909 Z" id="path-13"></path>
        <path d="M17.2970616,4.59093198 C14.9871869,2.96282412 12.5748838,1.76505903 10.0896705,1.05880645 C8.6287798,0.672258065 7.18259603,0.484586022 5.75882285,0.484586022 C3.89644475,0.484586022 2.07134553,0.805688952 0.299045535,1.42350316 L0.299045535,42.7037959 L17.2970616,42.7037959 L17.2970616,4.59093198 Z" id="path-15"></path>
    </defs>
    <g id="About-Smart-Alumni-App" stroke="none" stroke-width="1" fill="none" fill-rule="evenodd" transform="translate(-790.000000, -2288.000000)">
        <g id="Group-12" transform="translate(0.000000, 2267.000000)">
            <g id="Page-1" transform="translate(790.000000, 21.000000)">
                <g id="Group-99" transform="translate(0.000000, 0.179969)">
                    <path d="M399.570212,396.948569 L34.8825829,396.948569 C29.5775747,396.948569 25.2775416,392.648919 25.2775416,387.345083 L25.2775416,106.643728 C25.2775416,101.339892 29.5775747,97.0402415 34.8825829,97.0402415 L399.570212,97.0402415 C404.87452,97.0402415 409.175253,101.339892 409.175253,106.643728 L409.175253,387.345083 C409.175253,392.648919 404.87452,396.948569 399.570212,396.948569 Z" id="Fill-1" fill="#FFFFFF"></path>
                    <g id="Group-5" transform="translate(0.000000, 307.418011)">
                        <mask id="mask-2" fill="white">
                            <use xlink:href="#path-1"></use>
                        </mask>
                        <g id="Clip-4"></g>
                        <polygon id="Fill-3" fill="#365279" mask="url(#mask-2)" points="-0.000140066225 98.4135387 154.058001 0.688224194 166.971406 22.059028 12.4671546 123.791281"></polygon>
                    </g>
                    <g id="Group-8" transform="translate(298.341060, 0.000000)">
                        <mask id="mask-4" fill="white">
                            <use xlink:href="#path-3"></use>
                        </mask>
                        <g id="Clip-7"></g>
                        <path d="M102.456133,0.520509812 C102.456133,0.520509812 65.645328,59.6435058 58.3997022,65.4396308 C51.153376,71.2357558 5.35872368,90.6535098 1.59094222,104.56505 C-2.17753957,118.47589 2.77310116,156.502588 5.59263427,156.668551 C8.41146705,156.834515 11.3962783,143.072132 11.3962783,139.756359 C11.3962783,136.439886 9.57191573,119.029103 10.8990432,116.210521 C12.2254704,113.391939 27.4814836,101.287792 31.7934224,109.578275 C36.1046608,117.868757 37.7623445,129.309749 35.2747684,131.797104 C32.7878925,134.284459 20.5166906,138.263386 17.8638363,142.243014 C15.2102816,146.222642 14.3810896,148.212105 15.3762601,149.207187 C16.3707303,150.202269 46.5515002,136.771113 48.2098843,132.128331 C49.867568,127.486249 58.1594886,94.6555461 59.6518942,92.9973095 C61.1442998,91.339073 107.409575,69.1202437 124.48995,45.0779144 L102.456133,0.520509812 Z" id="Fill-6" fill="#C4DAF9" mask="url(#mask-4)"></path>
                    </g>
                    <path d="M344.711874,59.6979867 C342.342654,58.6559867 304.37,159.541614 304.37,159.541614 L305.204095,167.542186 L309.871801,161.374918 C309.871801,161.374918 348.878845,61.5312905 344.711874,59.6979867" id="Fill-9" fill="#365279"></path>
                    <polygon id="Fill-11" fill="#365279" points="85.8554136 154.392958 96.7014417 185.16347 99.686253 187.239067 87.4899864 153.624763"></polygon>
                    <polygon id="Fill-13" fill="#365279" points="89.7209613 149.986867 118.093476 166.097951 119.608993 169.40322 88.6760672 151.460232"></polygon>
                    <polygon id="Fill-15" fill="#365279" points="115.604429 150.819766 81.0802058 178.591027 80.266421 177.579139 114.789944 149.807878"></polygon>
                    <polygon id="Fill-17" fill="#365279" points="81.2594906 146.614792 75.2107306 140.028064 76.8193912 138.550496 82.8681512 145.137925"></polygon>
                    <path d="M85.3643414,152.928136 C83.4531377,152.928136 81.8984026,151.380542 81.8984026,149.468808 C81.8984026,147.557074 83.4531377,146.002477 85.3643414,146.002477 C87.2762454,146.002477 88.8239772,147.557074 88.8239772,149.468808 C88.8239772,151.380542 87.2762454,152.928136 85.3643414,152.928136 M85.3643414,144.573929 C82.6540599,144.573929 80.4620235,146.76577 80.4620235,149.468808 C80.4620235,152.171845 82.6540599,154.363687 85.3643414,154.363687 C88.0676195,154.363687 90.259656,152.171845 90.259656,149.468808 C90.259656,146.76577 88.0676195,144.573929 85.3643414,144.573929" id="Fill-19" fill="#365279"></path>
                    <g id="Group-23" transform="translate(320.751656, 362.739247)">
                        <mask id="mask-6" fill="white">
                            <use xlink:href="#path-5"></use>
                        </mask>
                        <g id="Clip-22"></g>
                        <path d="M22.9999947,13.8174242 C15.1702927,12.517025 13.0097712,41.2420519 10.9781106,46.9723516 C8.94715033,52.7026513 0.284054305,71.7975815 0.87233245,79.6370909 C1.4606106,87.4766003 5.89930927,100.844732 5.48751457,107.547005 C5.0764202,114.248577 0.596401987,152.684932 0.596401987,152.684932 L37.1697944,156.160366 C37.1697944,156.160366 29.0144384,111.248626 32.520296,105.718603 C36.026854,100.18928 58.5354964,61.7032065 56.8813142,55.470814 C55.2264318,49.2391218 51.9250709,27.5146823 50.1252199,26.0182078 C48.3267695,24.5224336 34.0631255,7.1431621 30.0691371,6.01923065 C23.5686636,4.18942823 14.3172894,0.371562634 14.3172894,0.371562634 C14.3172894,0.371562634 12.4439036,5.43450618 17.4589748,9.41693495 C19.1460725,10.7565492 22.6064086,12.0478449 25.6122298,14.918947 C32.4796768,21.4783651 39.9949301,31.1259685 40.0957778,31.6616742 C40.2414467,32.4326702 40.5706023,50.2482091 40.5033705,50.7397978 C40.4361387,51.2313866 32.8004285,68.7135976 23.764056,70.7380747 C23.764056,70.7380747 24.0322828,52.7292616 23.3340526,49.9225841 C22.4369285,46.3176003 31.3227298,15.2004551 22.9999947,13.8174242" id="Fill-21" fill="#C4DAF9" mask="url(#mask-6)"></path>
                    </g>
                    <path d="M344.310445,408.954678 L348.632888,408.954678 L350.058762,331.350188 L342.712989,331.215036 C343.77189,347.486482 343.75158,376.556742 343.75158,376.556742 C348.328244,377.530115 347.526365,387.392001 346.386226,396.103345 C345.646676,401.753814 344.874211,404.456151 344.310445,408.954678" id="Fill-24" fill="#365279"></path>
                    <path d="M379.692854,297.919004 C377.262705,315.761854 360.832236,328.254649 342.9885,325.824717 C325.143362,323.394784 312.650155,306.966477 315.080304,289.123628 C317.50345,271.280778 333.940221,258.787983 351.783958,261.217916 C369.629096,263.640846 382.123003,280.076155 379.692854,297.919004 M352.534013,255.699797 C331.643135,252.856706 312.405039,267.485322 309.560995,288.37434 C306.71835,309.263359 321.347567,328.499744 342.239145,331.342835 C363.130023,334.185926 382.367418,319.557311 385.211463,298.668292 C388.054107,277.779273 373.42489,258.542889 352.534013,255.699797" id="Fill-26" fill="#365279"></path>
                    <path d="M141.301259,482.386827 C141.301259,482.386827 106.950017,425.81351 103.313198,416.115487 C99.675678,406.417464 106.142536,380.555136 106.142536,376.91864 C106.142536,373.281444 104.314671,370.732466 104.314671,370.732466 C103.627647,369.385849 99.7099942,379.517338 91.2647012,366.643596 C82.0973667,352.671833 93.7963982,346.332999 93.7963982,346.332999 C93.7963982,346.332999 86.452726,342.970308 85.4897707,343.932478 C84.5275157,344.894647 83.7571515,348.551451 81.8326416,349.51362 C79.9074313,350.47649 59.8891664,355.095463 58.1565472,356.635354 C56.4246283,358.175245 50.4578071,369.915952 50.4578071,370.685548 C50.4578071,371.455143 53.1526813,402.250165 68.9360439,407.254286 L93.7963982,486.305532 L141.301259,482.386827 Z" id="Fill-28" fill="#C4DAF9"></path>
                    <path d="M101.114298,427.810327 C101.114298,433.441188 96.5488396,438.006241 90.917477,438.006241 C85.2854141,438.006241 80.7206558,433.441188 80.7206558,427.810327 C80.7206558,422.179465 85.2854141,417.614413 90.917477,417.614413 C96.5488396,417.614413 101.114298,422.179465 101.114298,427.810327" id="Fill-30" fill="#365279"></path>
                    <path d="M103.313128,416.115347 C103.448292,417.39894 76.408507,427.260826 74.3145169,424.356811 C73.7822652,424.451347 75.8391377,433.346862 77.2327967,433.636073 C78.0612884,433.808339 105.757283,429.248889 106.905826,422.7658 C106.635499,419.218238 103.313128,416.115347 103.313128,416.115347" id="Fill-32" fill="#365279"></path>
                    <mask id="mask-8" fill="white">
                        <use xlink:href="#path-7"></use>
                    </mask>
                    <g id="Clip-35"></g>
                    <polygon id="Stroke-34" stroke="#365279" stroke-width="0.7" mask="url(#mask-8)" points="196.024783 288.570276 238.120987 288.570276 238.120987 206.396531 196.024783 206.396531"></polygon>
                    <polygon id="Stroke-36" stroke="#365279" stroke-width="0.7" mask="url(#mask-8)" points="195.230608 265.307345 238.913762 265.307345 238.913762 256.002173 195.230608 256.002173"></polygon>
                    <path d="M238.120707,256.002033 L196.024503,256.002033 L196.024503,235.626312 C196.024503,225.352668 204.353541,217.02367 214.628799,217.02367 L219.51641,217.02367 C229.790968,217.02367 238.120707,225.352668 238.120707,235.626312 L238.120707,256.002033 Z" id="Stroke-37" stroke="#365279" stroke-width="0.7" mask="url(#mask-8)"></path>
                    <polygon id="Stroke-38" stroke="#365279" stroke-width="0.7" mask="url(#mask-8)" points="196.024783 288.570276 238.120987 288.570276 238.120987 265.307345 196.024783 265.307345"></polygon>
                    <polygon id="Stroke-39" stroke="#365279" stroke-width="0.7" mask="url(#mask-8)" points="209.798896 288.570276 210.765353 288.570276 210.765353 265.307345 209.798896 265.307345"></polygon>
                    <polygon id="Stroke-40" stroke="#365279" stroke-width="0.7" mask="url(#mask-8)" points="223.425939 288.570276 224.392396 288.570276 224.392396 265.307345 223.425939 265.307345"></polygon>
                    <polygon id="Stroke-41" stroke="#365279" stroke-width="0.7" mask="url(#mask-8)" points="247.065616 287.380519 324.564959 287.380519 324.564959 244.486253 247.065616 244.486253"></polygon>
                    <polygon id="Stroke-42" stroke="#365279" stroke-width="0.7" mask="url(#mask-8)" points="247.065616 287.380519 325.47749 287.380519 325.47749 274.127931 247.065616 274.127931"></polygon>
                    <polygon id="Stroke-43" stroke="#365279" stroke-width="0.7" mask="url(#mask-8)" points="247.065616 244.486253 325.47749 244.486253 325.47749 239.760839 247.065616 239.760839"></polygon>
                    <polygon id="Stroke-44" stroke="#365279" stroke-width="0.7" mask="url(#mask-8)" points="255.871579 284.51782 267.239354 284.51782 267.239354 253.614257 255.871579 253.614257"></polygon>
                    <polygon id="Stroke-45" stroke="#365279" stroke-width="0.7" mask="url(#mask-8)" points="256.942386 283.615874 266.167147 283.615874 266.167147 259.462202 256.942386 259.462202"></polygon>
                    <polygon id="Stroke-46" stroke="#365279" stroke-width="0.7" mask="url(#mask-8)" points="256.942386 267.627336 266.167147 267.627336 266.167147 266.763204 256.942386 266.763204"></polygon>
                    <polygon id="Stroke-47" stroke="#365279" stroke-width="0.7" mask="url(#mask-8)" points="256.942386 276.132801 266.167147 276.132801 266.167147 275.268669 256.942386 275.268669"></polygon>
                    <polygon id="Stroke-48" stroke="#365279" stroke-width="0.7" mask="url(#mask-8)" points="261.229813 283.615874 261.880421 283.615874 261.880421 259.462202 261.229813 259.462202"></polygon>
                    <polygon id="Stroke-49" stroke="#365279" stroke-width="0.7" mask="url(#mask-8)" points="260.828523 251.95602 262.282411 251.95602 262.282411 247.42388 260.828523 247.42388"></polygon>
                    <polygon id="Stroke-50" stroke="#365279" stroke-width="0.7" mask="url(#mask-8)" points="279.430018 284.51782 290.797793 284.51782 290.797793 253.614257 279.430018 253.614257"></polygon>
                    <polygon id="Stroke-51" stroke="#365279" stroke-width="0.7" mask="url(#mask-8)" points="280.501525 283.615874 289.726286 283.615874 289.726286 259.462202 280.501525 259.462202"></polygon>
                    <polygon id="Stroke-52" stroke="#365279" stroke-width="0.7" mask="url(#mask-8)" points="280.501525 267.627336 289.726286 267.627336 289.726286 266.763204 280.501525 266.763204"></polygon>
                    <polygon id="Stroke-53" stroke="#365279" stroke-width="0.7" mask="url(#mask-8)" points="280.501525 276.132801 289.726286 276.132801 289.726286 275.268669 280.501525 275.268669"></polygon>
                    <polygon id="Stroke-54" stroke="#365279" stroke-width="0.7" mask="url(#mask-8)" points="284.788252 283.615874 285.43956 283.615874 285.43956 259.462202 284.788252 259.462202"></polygon>
                    <polygon id="Stroke-55" stroke="#365279" stroke-width="0.7" mask="url(#mask-8)" points="284.386962 251.95602 285.840849 251.95602 285.840849 247.42388 284.386962 247.42388"></polygon>
                    <polygon id="Stroke-56" stroke="#365279" stroke-width="0.7" mask="url(#mask-8)" points="302.989157 284.51782 314.356232 284.51782 314.356232 253.614257 302.989157 253.614257"></polygon>
                    <polygon id="Stroke-57" stroke="#365279" stroke-width="0.7" mask="url(#mask-8)" points="304.060664 283.615874 313.284725 283.615874 313.284725 259.462202 304.060664 259.462202"></polygon>
                    <polygon id="Stroke-58" stroke="#365279" stroke-width="0.7" mask="url(#mask-8)" points="304.060664 267.627336 313.284725 267.627336 313.284725 266.763204 304.060664 266.763204"></polygon>
                    <polygon id="Stroke-59" stroke="#365279" stroke-width="0.7" mask="url(#mask-8)" points="304.060664 276.132801 313.284725 276.132801 313.284725 275.268669 304.060664 275.268669"></polygon>
                    <polygon id="Stroke-60" stroke="#365279" stroke-width="0.7" mask="url(#mask-8)" points="308.347391 283.615874 308.997998 283.615874 308.997998 259.462202 308.347391 259.462202"></polygon>
                    <polygon id="Stroke-61" stroke="#365279" stroke-width="0.7" mask="url(#mask-8)" points="307.946101 251.95602 309.399288 251.95602 309.399288 247.42388 307.946101 247.42388"></polygon>
                    <polygon id="Stroke-62" stroke="#365279" stroke-width="0.7" mask="url(#mask-8)" points="238.120987 289.313261 247.065616 289.313261 247.065616 206.396531 238.120987 206.396531"></polygon>
                    <polygon id="Stroke-63" stroke="#365279" stroke-width="0.7" mask="url(#mask-8)" points="237.053682 206.396531 248.13222 206.396531 248.13222 202.091278 237.053682 202.091278"></polygon>
                    <polygon id="Stroke-64" stroke="#365279" stroke-width="0.7" mask="url(#mask-8)" points="237.053682 289.313261 248.13222 289.313261 248.13222 273.582422 237.053682 273.582422"></polygon>
                    <polygon id="Stroke-65" stroke="#365279" stroke-width="0.7" mask="url(#mask-8)" points="109.887556 287.380519 187.386899 287.380519 187.386899 244.486253 109.887556 244.486253"></polygon>
                    <polygon id="Stroke-66" stroke="#365279" stroke-width="0.7" mask="url(#mask-8)" points="108.975025 287.380519 187.386899 287.380519 187.386899 274.127931 108.975025 274.127931"></polygon>
                    <polygon id="Stroke-67" stroke="#365279" stroke-width="0.7" mask="url(#mask-8)" points="108.975025 244.486253 187.386899 244.486253 187.386899 239.760839 108.975025 239.760839"></polygon>
                    <polygon id="Stroke-68" stroke="#365279" stroke-width="0.7" mask="url(#mask-8)" points="167.213861 284.51782 178.581636 284.51782 178.581636 253.614257 167.213861 253.614257"></polygon>
                    <polygon id="Stroke-69" stroke="#365279" stroke-width="0.7" mask="url(#mask-8)" points="168.285368 283.615874 177.510129 283.615874 177.510129 259.462202 168.285368 259.462202"></polygon>
                    <polygon id="Stroke-70" stroke="#365279" stroke-width="0.7" mask="url(#mask-8)" points="168.285368 267.627336 177.510129 267.627336 177.510129 266.763204 168.285368 266.763204"></polygon>
                    <polygon id="Stroke-71" stroke="#365279" stroke-width="0.7" mask="url(#mask-8)" points="168.285368 276.132801 177.510129 276.132801 177.510129 275.268669 168.285368 275.268669"></polygon>
                    <polygon id="Stroke-72" stroke="#365279" stroke-width="0.7" mask="url(#mask-8)" points="172.572094 283.615874 173.222702 283.615874 173.222702 259.462202 172.572094 259.462202"></polygon>
                    <polygon id="Stroke-73" stroke="#365279" stroke-width="0.7" mask="url(#mask-8)" points="172.170805 251.95602 173.624692 251.95602 173.624692 247.42388 172.170805 247.42388"></polygon>
                    <polygon id="Stroke-74" stroke="#365279" stroke-width="0.7" mask="url(#mask-8)" points="143.654722 284.51782 155.022497 284.51782 155.022497 253.614257 143.654722 253.614257"></polygon>
                    <polygon id="Stroke-75" stroke="#365279" stroke-width="0.7" mask="url(#mask-8)" points="144.726228 283.615874 153.95099 283.615874 153.95099 259.462202 144.726228 259.462202"></polygon>
                    <polygon id="Stroke-76" stroke="#365279" stroke-width="0.7" mask="url(#mask-8)" points="144.726228 267.627336 153.95099 267.627336 153.95099 266.763204 144.726228 266.763204"></polygon>
                    <polygon id="Stroke-77" stroke="#365279" stroke-width="0.7" mask="url(#mask-8)" points="144.726228 276.132801 153.95099 276.132801 153.95099 275.268669 144.726228 275.268669"></polygon>
                    <polygon id="Stroke-78" stroke="#365279" stroke-width="0.7" mask="url(#mask-8)" points="149.013656 283.615874 149.664263 283.615874 149.664263 259.462202 149.013656 259.462202"></polygon>
                    <polygon id="Stroke-79" stroke="#365279" stroke-width="0.7" mask="url(#mask-8)" points="148.611666 251.95602 150.065553 251.95602 150.065553 247.42388 148.611666 247.42388"></polygon>
                    <polygon id="Stroke-80" stroke="#365279" stroke-width="0.7" mask="url(#mask-8)" points="120.096283 284.51782 131.463358 284.51782 131.463358 253.614257 120.096283 253.614257"></polygon>
                    <polygon id="Stroke-81" stroke="#365279" stroke-width="0.7" mask="url(#mask-8)" points="121.16779 283.615874 130.391851 283.615874 130.391851 259.462202 121.16779 259.462202"></polygon>
                    <polygon id="Stroke-82" stroke="#365279" stroke-width="0.7" mask="url(#mask-8)" points="121.16779 267.627336 130.391851 267.627336 130.391851 266.763204 121.16779 266.763204"></polygon>
                    <polygon id="Stroke-83" stroke="#365279" stroke-width="0.7" mask="url(#mask-8)" points="121.16779 276.132801 130.391851 276.132801 130.391851 275.268669 121.16779 275.268669"></polygon>
                    <polygon id="Stroke-84" stroke="#365279" stroke-width="0.7" mask="url(#mask-8)" points="125.455217 283.615874 126.105825 283.615874 126.105825 259.462202 125.455217 259.462202"></polygon>
                    <polygon id="Stroke-85" stroke="#365279" stroke-width="0.7" mask="url(#mask-8)" points="125.053227 251.95602 126.506414 251.95602 126.506414 247.42388 125.053227 247.42388"></polygon>
                    <polygon id="Stroke-86" stroke="#365279" stroke-width="0.7" mask="url(#mask-8)" points="187.387599 289.313261 196.332929 289.313261 196.332929 206.396531 187.387599 206.396531"></polygon>
                    <polygon id="Stroke-87" stroke="#365279" stroke-width="0.7" mask="url(#mask-8)" points="186.320295 206.396531 197.398833 206.396531 197.398833 202.091278 186.320295 202.091278"></polygon>
                    <polygon id="Stroke-88" stroke="#365279" stroke-width="0.7" mask="url(#mask-8)" points="186.320295 289.313261 197.398833 289.313261 197.398833 273.582422 186.320295 273.582422"></polygon>
                    <polygon id="Stroke-89" stroke="#365279" stroke-width="0.7" mask="url(#mask-8)" points="73.2455315 291.897253 361.206283 291.897253 361.206283 287.380519 73.2455315 287.380519"></polygon>
                    <path d="M351.178312,283.021556 C345.446101,283.671405 340.787499,281.747767 341.658711,277.9271 C342.529923,274.106433 342.328928,270.352292 341.859706,268.811 C341.390484,267.269008 341.04452,266.397874 341.552961,264.654905 C342.060701,262.911936 345.927929,261.102441 346.240277,258.487637 C346.553325,255.873534 346.217866,251.717439 348.429512,251.449936 C350.641858,251.181733 350.49689,259.426698 351.910158,260.163381 C353.323426,260.901464 355.267545,261.839124 355.334777,263.515568 C355.401308,265.191311 354.060875,267.202483 354.66456,269.079203 C355.267545,270.955924 357.211664,271.693307 357.412659,274.30741 C357.613654,276.921514 357.412659,280.876632 355.803299,281.546789 C354.195338,282.217647 352.384282,282.885003 351.178312,283.021556 Z" id="Stroke-90" stroke="#365279" stroke-width="0.7" mask="url(#mask-8)"></path>
                    <path d="M349.474686,267.393026 C349.12312,267.393026 349.251281,287.653203 349.251281,287.653203 L349.472585,287.653203 C349.472585,287.653203 349.931302,267.393026 349.474686,267.393026 Z" id="Stroke-91" stroke="#365279" stroke-width="0.7" mask="url(#mask-8)"></path>
                    <path d="M344.450651,273.179137 C344.310585,273.319191 349.358571,278.358325 349.358571,278.358325 L349.638003,278.078918 C349.638003,278.078918 344.633437,272.997067 344.450651,273.179137 Z" id="Stroke-92" stroke="#365279" stroke-width="0.7" mask="url(#mask-8)"></path>
                    <path d="M353.072777,269.563229 C353.176426,269.666869 349.435258,273.401403 349.435258,273.401403 L349.22796,273.194823 C349.22796,273.194823 352.937614,269.428077 353.072777,269.563229 Z" id="Stroke-93" stroke="#365279" stroke-width="0.7" mask="url(#mask-8)"></path>
                    <path d="M95.2975579,283.021556 C89.5653477,283.671405 84.906745,281.747767 85.777957,277.9271 C86.6491689,274.106433 86.4481738,270.352292 85.978952,268.811 C85.5097301,267.269008 85.1637666,266.397874 85.672207,264.654905 C86.179947,262.911936 90.0471755,261.102441 90.3595232,258.487637 C90.6725712,255.873534 90.3364123,251.717439 92.5487583,251.449936 C94.7611043,251.181733 94.6161358,259.426698 96.029404,260.163381 C97.4426722,260.901464 99.3867914,261.839124 99.4540232,263.515568 C99.5205546,265.191311 98.1801209,267.202483 98.7838063,269.079203 C99.3867914,270.955924 101.330911,271.693307 101.531906,274.30741 C101.732901,276.921514 101.531906,280.876632 99.9225447,281.546789 C98.3145844,282.217647 96.5035281,282.885003 95.2975579,283.021556 Z" id="Stroke-94" stroke="#365279" stroke-width="0.7" mask="url(#mask-8)"></path>
                    <path d="M93.5939325,267.393026 C93.2423662,267.393026 93.3705268,287.653203 93.3705268,287.653203 L93.5918315,287.653203 C93.5918315,287.653203 94.0505483,267.393026 93.5939325,267.393026 Z" id="Stroke-95" stroke="#365279" stroke-width="0.7" mask="url(#mask-8)"></path>
                    <path d="M88.569897,273.179137 C88.4298308,273.319191 93.4778175,278.358325 93.4778175,278.358325 L93.7572497,278.078918 C93.7572497,278.078918 88.7526834,272.997067 88.569897,273.179137 Z" id="Stroke-96" stroke="#365279" stroke-width="0.7" mask="url(#mask-8)"></path>
                    <path d="M97.1920237,269.563229 C97.2956727,269.666869 93.5545038,273.401403 93.5545038,273.401403 L93.3472058,273.194823 C93.3472058,273.194823 97.0568598,269.428077 97.1920237,269.563229 Z" id="Stroke-97" stroke="#365279" stroke-width="0.7" mask="url(#mask-8)"></path>
                    <path d="M315.075752,289.124608 C312.647004,306.967458 325.144413,323.401366 342.98955,325.829198 C360.834687,328.257731 377.269358,315.761434 379.697406,297.917884 C382.125454,280.075034 369.628045,263.641126 351.783608,261.213294 C333.939171,258.784762 317.5045,271.281759 315.075752,289.124608" id="Fill-98" fill="#F4F6F8" mask="url(#mask-8)"></path>
                </g>
                <g id="Group-286" transform="translate(319.350993, 260.679969)">
                    <g id="Group-120" transform="translate(0.000000, 15.405914)">
                        <mask id="mask-10" fill="white">
                            <use xlink:href="#path-9"></use>
                        </mask>
                        <g id="Clip-119"></g>
                        <path d="M-69.9805877,29.3152835 C-43.0388493,32.9538802 -16.2308742,35.2108466 9.94120033,35.5728856 C8.79685927,8.29881573 7.65321854,-18.9745539 6.50817715,-46.2486238 C-18.7786788,-46.0259383 -44.6790248,-44.636605 -70.7089321,-42.3978456 C-70.4659172,-18.4934692 -70.2236026,5.41090712 -69.9805877,29.3152835 Z" id="Stroke-118" stroke="#365279" stroke-width="0.7" mask="url(#mask-10)"></path>
                    </g>
                    <g id="Group-123" transform="translate(0.000000, 22.408602)">
                        <mask id="mask-12" fill="white">
                            <use xlink:href="#path-11"></use>
                        </mask>
                        <g id="Clip-122"></g>
                        <path d="M-69.9805877,22.3125953 C-42.7215993,25.9939085 -15.5991755,28.2613789 10.8656374,28.5814017 C10.5091689,20.1536665 10.152,11.725231 9.79553146,3.29679556 C-16.3926507,3.13643401 -43.2321407,2.00059798 -70.205394,0.156089919 C-70.1304586,7.54182513 -70.0555232,14.9268601 -69.9805877,22.3125953 Z" id="Stroke-121" stroke="#365279" stroke-width="0.7" mask="url(#mask-12)"></path>
                    </g>
                    <g id="Group-264" transform="translate(0.000000, 4.901882)">
                        <mask id="mask-14" fill="white">
                            <use xlink:href="#path-13"></use>
                        </mask>
                        <g id="Clip-263"></g>
                        <path d="M47.0766084,53.7402397 C-47.8546763,60.4656214 -154.891885,32.6264345 -248.166186,1.13254476 C-247.980599,0.855238306 -247.795711,0.578632124 -247.609423,0.302025941 C-154.666378,27.2182585 -48.0094495,51.0105918 46.5842757,45.2627853 C46.7481531,48.08837 46.912731,50.914655 47.0766084,53.7402397 Z" id="Stroke-262" stroke="#365279" stroke-width="0.7" mask="url(#mask-14)"></path>
                    </g>
                    <g id="Group-267" transform="translate(24.511589, 0.000000)">
                        <mask id="mask-16" fill="white">
                            <use xlink:href="#path-15"></use>
                        </mask>
                        <g id="Clip-266"></g>
                        <path d="M11.706525,42.3967952 C6.08916904,43.8232427 1.2484803,40.2140573 1.76532467,32.9186567 C2.27166407,25.625357 1.71700182,18.4784134 1.10981474,15.5421863 C0.502627649,12.6080599 0.0817286424,10.9470223 0.418587914,7.62354651 C0.758948841,4.29796989 4.37335778,0.84774543 4.41957964,-4.12066183 C4.46930315,-9.08906909 3.74095877,-17.0007062 5.85595877,-17.4817909 C7.96745712,-17.9607747 8.65728328,-2.32447231 10.1069687,-0.928836559 C11.5552535,0.471000806 13.5399919,2.24128038 13.7802055,5.40509489 C14.02252,8.56820914 12.9230002,12.3811728 13.7059704,15.9231325 C14.4910416,19.4622911 16.4680763,20.8159108 16.9422005,25.7359995 C17.4156243,30.6574887 17.6418313,38.1153516 16.1249141,39.4437616 C14.6100978,40.7700707 12.8879836,42.0977804 11.706525,42.3967952 Z" id="Stroke-265" stroke="#365279" stroke-width="0.7" mask="url(#mask-16)"></path>
                    </g>
                    <path d="M32.9694884,12.7892195 C32.6263262,12.7927208 34.7679387,51.2465824 34.7686391,51.2472827 C34.8428742,51.2444816 34.9157086,51.2416805 34.9892434,51.2395797 C34.9920447,51.2367786 33.419101,12.7836173 32.9694884,12.7892195 Z" id="Stroke-268" stroke="#365279" stroke-width="0.7"></path>
                    <path d="M28.5931192,23.8403718 C28.4649586,24.1204793 33.9471507,33.6140237 33.9492517,33.6021191 C34.0325911,33.4235505 34.1152301,33.2442817 34.1978692,33.0650129 C34.1943675,33.0776177 28.753495,23.5042427 28.5931192,23.8403718 Z" id="Stroke-270" stroke="#365279" stroke-width="0.7"></path>
                    <path d="M36.7118478,16.8612827 C36.8288031,17.052456 33.5351459,24.1888956 33.5302435,24.1930972 C33.4553081,24.0635474 33.3803727,23.9332974 33.3054373,23.8037477 C33.3103396,23.7988458 36.5696806,16.6035837 36.7118478,16.8612827 Z" id="Stroke-272" stroke="#365279" stroke-width="0.7"></path>
                </g>
            </g>
        </g>
    </g>
</svg>