<?xml version="1.0" encoding="UTF-8"?>
<svg width="459px" height="429px" viewBox="0 0 459 429" version="1.1" xmlns="http://www.w3.org/2000/svg" xmlns:xlink="http://www.w3.org/1999/xlink">
    <!-- Generator: Sketch 48.1 (47250) - http://www.bohemiancoding.com/sketch -->
    <title>Payment Methods - Illustrations</title>
    <desc>Created with Sketch.</desc>
    <defs>
        <polygon id="path-1" points="2.27052268e-15 104.20682 2.27052268e-15 0.330351577 112.770775 0.330351577 112.770775 104.20682"></polygon>
    </defs>
    <g id="About-Smart-Alumni--web" stroke="none" stroke-width="1" fill="none" fill-rule="evenodd" transform="translate(-809.000000, -2742.000000)">
        <g id="Group-10" transform="translate(808.000000, 2741.000000)">
            <g id="Payment-Methods---Illustrations" transform="translate(0.578397, 0.238806)">
                <g id="Group-15" transform="translate(0.421603, 0.761194)">
                    <path d="M240.022929,428.716641 C399.874899,418.031882 365.189569,322.13335 419.532322,291.143465 C473.875874,260.152779 470.407342,120.331487 419.532322,122.00536 C368.658102,123.679234 321.250815,29.468991 292.344772,9.80778562 C263.438729,-9.85422067 136.024588,-3.43263344 90.9312569,61.3350565 C45.8379261,126.101945 -14.2865151,165.002284 3.05695051,224.776385 C20.4004161,284.550486 55.0176885,378.471605 88.697368,383.236939 C122.377047,388.002272 176.385917,432.970201 240.022929,428.716641" id="Fill-1" fill="#F4F6F8"></path>
                    <polygon id="Fill-1" fill="#8EB3E6" points="166.020474 355.141315 211.739851 355.141315 211.739851 279.552844 166.020474 279.552844"></polygon>
                    <polygon id="Fill-2" fill="#8EB3E6" points="214.078018 355.141315 259.79686 355.141315 259.79686 236.41188 214.078018 236.41188"></polygon>
                    <polygon id="Fill-3" fill="#8EB3E6" points="262.135026 355.141315 307.853868 355.141315 307.853868 279.552844 262.135026 279.552844"></polygon>
                    <polygon id="Fill-4" fill="#FFFFFF" points="229.162754 250.573212 232.707249 250.573212 241.462377 264.721125 241.516504 264.721125 241.516504 250.573212 244.712123 250.573212 244.712123 269.777747 241.166556 269.777747 232.43876 255.65667 232.358373 255.65667 232.358373 269.777747 229.162754 269.777747"></polygon>
                    <polygon id="Fill-5" fill="#FFFFFF" points="226.016975 259.366613 247.857367 259.366613 247.857367 257.626504 226.016975 257.626504"></polygon>
                    <polygon id="Fill-6" fill="#FFFFFF" points="226.016975 263.188197 247.857367 263.188197 247.857367 261.448088 226.016975 261.448088"></polygon>
                    <g id="Group-37" transform="translate(49.578397, 83.551188)">
                        <path d="M236.060908,220.688608 C237.027686,220.617222 237.819758,220.334897 238.43766,219.841097 C239.055561,219.34837 239.363708,218.563657 239.363708,217.487495 C239.363708,216.98618 239.269925,216.564303 239.082357,216.223473 C238.893717,215.883181 238.642912,215.596025 238.329942,215.36308 C238.016436,215.130135 237.662737,214.94174 237.26938,214.797894 C236.875488,214.654584 236.472485,214.528987 236.060908,214.421639 L236.060908,220.688608 Z M234.906562,205.410858 C233.939248,205.410858 233.191657,205.612673 232.663252,206.016301 C232.135382,206.419392 231.871716,207.096757 231.871716,208.046786 C231.871716,208.477251 231.961212,208.844917 232.140205,209.149785 C232.318663,209.454653 232.54696,209.714435 232.825096,209.929667 C233.10216,210.1449 233.424241,210.319877 233.791874,210.454062 C234.158435,210.588783 234.530355,210.700962 234.906562,210.790597 L234.906562,205.410858 Z M231.468713,216.815497 C231.450492,217.999007 231.710407,218.931323 232.247387,219.612446 C232.784367,220.294642 233.670758,220.652647 234.906562,220.688608 L234.906562,214.17957 C234.172368,213.982586 233.441926,213.744811 232.717378,213.46678 C231.992295,213.188749 231.337951,212.830744 230.757027,212.391154 C230.175031,211.951565 229.70504,211.400333 229.347053,210.736387 C228.988531,210.073513 228.810074,209.248545 228.810074,208.262018 C228.810074,207.401088 228.975133,206.644286 229.306324,205.989464 C229.638051,205.335178 230.085534,204.788241 230.64931,204.348651 C231.213621,203.909598 231.862069,203.573063 232.596263,203.340118 C233.330457,203.107173 234.100557,202.990164 234.906562,202.990164 L234.906562,200.89205 L236.060908,200.89205 L236.060908,202.990164 C236.866913,202.990164 237.627367,203.098049 238.343876,203.312744 C239.059313,203.528513 239.681502,203.851094 240.209907,204.281559 C240.738312,204.711487 241.159,205.258961 241.472506,205.921834 C241.785476,206.585781 241.942497,207.357075 241.942497,208.235181 L238.880855,208.235181 C238.844414,207.320577 238.607542,206.621206 238.16917,206.137067 C237.730261,205.652928 237.027686,205.410858 236.060908,205.410858 L236.060908,211.086341 C236.866913,211.301573 237.654162,211.552767 238.424262,211.839386 C239.193826,212.126542 239.873893,212.494208 240.464999,212.942385 C241.05557,213.390563 241.529848,213.946625 241.888371,214.610035 C242.246357,215.273445 242.425351,216.089288 242.425351,217.057566 C242.425351,218.061806 242.259755,218.936154 241.928564,219.680075 C241.596837,220.423996 241.145066,221.042856 240.572717,221.53612 C239.999831,222.029383 239.327803,222.405637 238.558239,222.665419 C237.788675,222.925201 236.955874,223.073341 236.060908,223.109303 L236.060908,225.207417 L234.906562,225.207417 L234.906562,223.109303 C233.939248,223.09159 233.052857,222.93862 232.247387,222.652001 C231.441917,222.365382 230.752204,221.95746 230.179318,221.428235 C229.606433,220.899547 229.163237,220.249555 228.850267,219.478261 C228.53676,218.707503 228.389386,217.819736 228.407071,216.815497 L231.468713,216.815497 Z" id="Fill-7" fill="#FFFFFF"></path>
                        <path d="M132.66835,212.323525 L134.359676,212.323525 C133.948099,211.821674 133.635128,211.225356 133.420229,210.534573 C133.20533,209.844863 133.098149,209.176622 133.098149,208.530925 C133.098149,207.688244 133.276606,206.926611 133.635128,206.244951 C133.993115,205.563829 134.467393,204.980394 135.0585,204.496255 C135.64907,204.012116 136.320563,203.640692 137.072442,203.380373 C137.824321,203.120592 138.59442,202.990164 139.382205,202.990164 C141.440628,202.990164 143.074611,203.541932 144.283083,204.644395 C145.492092,205.747394 146.104634,207.410749 146.122319,209.633924 L143.061213,209.633924 C143.024771,209.06015 142.940634,208.522337 142.806121,208.019949 C142.671608,207.518097 142.465819,207.083338 142.188755,206.715672 C141.910619,206.348005 141.544058,206.061387 141.087464,205.854742 C140.630871,205.648634 140.079957,205.54558 139.435796,205.54558 C138.612105,205.54558 137.908994,205.814487 137.327534,206.352299 C136.745538,206.890112 136.45454,207.670531 136.45454,208.692483 C136.45454,209.320468 136.589053,209.952747 136.857543,210.588783 C137.126033,211.225356 137.403633,211.803425 137.690344,212.323525 L141.637842,212.323525 L141.637842,214.072222 L138.334505,214.072222 C138.62068,214.610035 138.764303,215.210646 138.764303,215.874056 C138.764303,216.358195 138.692492,216.811203 138.54994,217.232543 C138.405781,217.653884 138.209639,218.048387 137.958834,218.416054 C137.707493,218.78372 137.417031,219.119719 137.08584,219.42405 C136.754649,219.729455 136.409524,220.016074 136.051537,220.28498 L136.105664,220.339191 C136.517777,220.177632 136.920244,220.016074 137.314672,219.854515 C137.707493,219.693493 138.128716,219.612446 138.5762,219.612446 C139.041904,219.612446 139.444906,219.662363 139.784672,219.760586 C140.124974,219.859346 140.447054,219.9624 140.751986,220.069748 C141.055846,220.195881 141.360241,220.307523 141.664637,220.406283 C141.969033,220.505043 142.326483,220.553887 142.739132,220.553887 C143.240206,220.553887 143.70591,220.464788 144.135173,220.28498 C144.564971,220.106246 144.967974,219.854515 145.343645,219.531935 L146.713426,221.603212 C146.032823,222.176987 145.366153,222.57149 144.713417,222.786722 C144.059074,223.001955 143.293797,223.109303 142.416516,223.109303 C141.987254,223.109303 141.552632,223.059923 141.11426,222.961699 C140.675351,222.862403 140.223581,222.777598 139.757877,222.705675 C139.310929,222.562365 138.8538,222.436768 138.388632,222.32942 C137.922928,222.221536 137.439003,222.167862 136.938465,222.167862 C136.472761,222.167862 135.988836,222.248373 135.488298,222.409931 C134.986152,222.57149 134.566,222.79531 134.225699,223.082466 L132.802327,220.903841 C133.124944,220.688608 133.460958,220.415408 133.809834,220.083703 C134.158175,219.751998 134.471681,219.393456 134.749281,219.00754 C135.026881,218.622162 135.255178,218.218534 135.434707,217.797193 C135.613165,217.375853 135.702661,216.958806 135.702661,216.546054 C135.702661,216.080164 135.653358,215.641111 135.555287,215.228358 C135.456679,214.816143 135.317343,214.430764 135.138886,214.072222 L132.66835,214.072222 L132.66835,212.323525 Z" id="Fill-9" fill="#FFFFFF"></path>
                        <g id="Group-13" transform="translate(0.000000, 41.328932)">
                            <mask id="mask-2" fill="white">
                                <use xlink:href="#path-1"></use>
                            </mask>
                            <g id="Clip-12"></g>
                            <path d="M104.939831,45.4540428 L112.25283,60.6657735 C113.503104,63.2641289 112.411995,66.3852684 109.817665,67.6369446 L35.0638668,103.688655 C32.4695365,104.939795 29.3526959,103.84753 28.1034945,101.248638 L0.517097568,43.8717351 C-0.732103832,41.272843 0.359004727,38.1517035 2.95333505,36.9000273 L77.7071331,0.84885333 C80.3014634,-0.402822905 83.4177681,0.689441734 84.6675054,3.28833381 L91.8947598,18.3213304" id="Fill-11" fill="#8EB3E6" mask="url(#mask-2)"></path>
                        </g>
                        <path d="M104.340043,87.0719555 L81.2622392,98.2017833 C78.6673729,99.4529228 75.5510683,98.3606582 74.3018669,95.7623028 L65.8677478,78.2189762 C64.6180105,75.6206208 65.7085831,72.4994813 68.3034493,71.2483418 L91.3812528,60.1179773 C93.976119,58.8668378 97.0924237,59.9591025 98.3416251,62.5579945 L106.77628,80.1007844 C108.025481,82.6996765 106.934909,85.8202793 104.340043,87.0719555" id="Fill-14" fill="#FFFFFF"></path>
                        <path d="M83.0780024,72.4129053 L89.565168,85.90707" id="Stroke-16" stroke="#365279" stroke-width="2.688" stroke-linecap="round" stroke-linejoin="round"></path>
                        <g id="Group-20" transform="translate(262.594889, 50.990241)" fill="#8EB3E6">
                            <path d="M82.9780556,44.8308347 L69.7636377,66.9348358 L0.427868896,25.3536361 L13.6428227,3.2496349 C15.3663026,0.366807692 19.0935423,-0.569802526 21.9713679,1.15635132 L80.8837274,36.4866843 C83.7620889,38.2128381 84.7020714,41.9480075 82.9780556,44.8308347" id="Fill-18"></path>
                        </g>
                        <path d="M326.582189,127.586225 L323.53716,132.679345 C321.814216,135.562172 318.079474,136.500392 315.201648,134.774239 L256.289289,99.4439056 C253.410927,97.7182885 252.478448,93.9804354 254.201927,91.0981449 L257.246956,86.005025 L326.582189,127.586225 Z" id="Fill-21" fill="#8EB3E6"></path>
                        <path d="M91.1139955,47.1036039 C92.0127131,45.9200936 92.933403,44.7542956 93.8739214,43.6062101 C115.598021,17.1191952 148.553144,0.224249713 185.447726,0.224249713 C224.428597,0.224249713 259.011272,19.0836613 280.596036,48.1888909" id="Stroke-23" stroke="#365279" stroke-width="2.1504" stroke-linecap="round" stroke-linejoin="round"></path>
                        <path d="M112.372392,212.22498 C88.6616808,193.584021 72.2280639,166.078811 68.0469102,134.692976" id="Stroke-25" stroke="#365279" stroke-width="2.1504" stroke-linecap="round" stroke-linejoin="round"></path>
                        <path d="M303.283324,130.984483 C300.101102,162.371392 284.701788,190.140677 261.924093,209.448266" id="Stroke-27" stroke="#365279" stroke-width="2.1504" stroke-linecap="round" stroke-linejoin="round"></path>
                        <path d="M213.639645,134.69303 L157.255699,134.69303 C156.368236,134.69303 155.647976,133.972189 155.647976,133.082812 L155.647976,84.0726022 C155.647976,83.1837618 156.368236,82.462384 157.255699,82.462384 L213.639645,82.462384 C214.527645,82.462384 215.247369,83.1837618 215.247369,84.0726022 L215.247369,133.082812 C215.247369,133.972189 214.527645,134.69303 213.639645,134.69303 Z" id="Stroke-29" stroke="#365279" stroke-width="2.688"></path>
                        <path d="M200.347628,82.4625987 L170.548467,82.4625987 L170.548467,62.2248404 C170.548467,61.0391831 171.507742,60.0778829 172.692099,60.0778829 L198.203996,60.0778829 C199.387817,60.0778829 200.347628,61.0391831 200.347628,62.2248404 L200.347628,82.4625987 Z" id="Stroke-31" stroke="#365279" stroke-width="2.688"></path>
                        <path d="M192.897811,104.8471 C192.897811,108.967648 189.56232,112.308314 185.448155,112.308314 C181.333454,112.308314 177.997963,108.967648 177.997963,104.8471 C177.997963,100.726015 181.333454,97.385349 185.448155,97.385349 C189.56232,97.385349 192.897811,100.726015 192.897811,104.8471 Z" id="Stroke-33" stroke="#365279" stroke-width="2.688"></path>
                        <path d="M185.44794,112.308529 L185.44794,119.77028" id="Stroke-35" stroke="#365279" stroke-width="2.688" stroke-linecap="round" stroke-linejoin="round"></path>
                    </g>
                </g>
            </g>
        </g>
    </g>
</svg>