<?xml version="1.0" encoding="UTF-8"?>
<svg width="322px" height="394px" viewBox="0 0 322 394" version="1.1" xmlns="http://www.w3.org/2000/svg" xmlns:xlink="http://www.w3.org/1999/xlink">
    <!-- Generator: Sketch 48.1 (47250) - http://www.bohemiancoding.com/sketch -->
    <title>Projects Illustration </title>
    <desc>Created with Sketch.</desc>
    <defs>
        <polygon id="path-1" points="1.44079797e-20 0.522371304 1.44079797e-20 93.9592263 126.733515 93.9592263 126.733515 0.522371304"></polygon>
        <polygon id="path-3" points="94.4891539 118.914641 94.4891539 0.395073861 0.173761624 0.395073861 0.173761624 118.914641 94.4891539 118.914641"></polygon>
        <polygon id="path-5" points="43.2395171 118.527473 0.45267703 118.527473 0.45267703 0.282020975 43.2395171 0.282020975"></polygon>
        <path d="M5.03843156,0.118474322 C2.60681688,6.14450126 0.969681166,13.5014918 0.44248944,21.6936636 L8.24716313,21.6936636 L8.24716313,0.118474322 L5.03843156,0.118474322 Z" id="path-7"></path>
        <path d="M0.268379159,41.5576401 C0.251113131,40.1500474 0.268900045,38.7368807 0.323188861,37.3218033 C0.96818378,20.2323143 6.3924602,6.44898438 13.8870282,0.229241701 L32.3694713,0.229241701 C33.5284147,1.10782373 34.6514112,2.12979774 35.7317711,3.28130139 L35.7317711,41.5576401 L0.268379052,41.5576314 L0.268379159,41.5576401 Z" id="path-9"></path>
        <path d="M13.1286995,3.48457835 C11.3754739,2.24882286 9.54450387,1.33970325 7.65819395,0.803648161 C6.54935848,0.5102528 5.45168579,0.367807227 4.37102303,0.367807227 C2.95745332,0.367807227 1.57217877,0.611528616 0.226979533,1.08045781 L0.226979533,32.4127483 L13.1286995,32.4127483 L13.1286995,3.48457835 Z" id="path-11"></path>
        <rect id="path-13" x="0" y="0" width="400" height="400"></rect>
    </defs>
    <g id="About-Smart-Alumni--web" stroke="none" stroke-width="1" fill="none" fill-rule="evenodd" transform="translate(-858.000000, -1529.000000)">
        <g id="Projects-Illustration-" transform="translate(814.000000, 1528.000000)">
            <g id="Group-16">
                <path d="M348.060882,302.184849 L71.2581275,302.184849 C67.2315557,302.184849 63.9677735,298.921357 63.9677735,294.895675 L63.9677735,81.8396184 C63.9677735,77.8139364 67.2315557,74.5504445 71.2581275,74.5504445 L348.060882,74.5504445 C352.086922,74.5504445 355.351236,77.8139364 355.351236,81.8396184 L355.351236,294.895675 C355.351236,298.921357 352.086922,302.184849 348.060882,302.184849 Z" id="Fill-1" fill="#FFFFFF"></path>
                <g id="Group-5" transform="translate(44.781784, 234.229966)">
                    <mask id="mask-2" fill="white">
                        <use xlink:href="#path-1"></use>
                    </mask>
                    <g id="Clip-4"></g>
                    <polygon id="Fill-3" fill="#365279" mask="url(#mask-2)" points="-0.000106312125 74.6971831 116.932069 0.522371304 126.733515 16.7430952 9.46273597 93.9592263"></polygon>
                </g>
                <g id="Group-8" transform="translate(271.226611, 0.895612)">
                    <mask id="mask-4" fill="white">
                        <use xlink:href="#path-3"></use>
                    </mask>
                    <g id="Clip-7"></g>
                    <path d="M77.7655656,0.395073861 C77.7655656,0.395073861 49.8256759,45.2702131 44.3261496,49.669549 C38.8260918,54.0688848 4.06734245,68.8072181 1.20754628,79.366262 C-1.65278146,89.9247743 2.10482061,118.787543 4.2448837,118.913512 C6.38441522,119.03948 8.64992661,108.593649 8.64992661,106.076933 C8.64992661,103.559686 7.26521118,90.3446699 8.27251857,88.2053287 C9.27929439,86.0659875 20.8588111,76.8787796 24.1316299,83.1713659 C27.4039171,89.4639523 28.6621211,98.1478171 26.7740177,100.035752 C24.886446,101.923688 15.5724407,104.943747 13.558889,107.964337 C11.5448058,110.984927 10.915438,112.494957 11.6707857,113.250237 C12.4256017,114.005517 35.333207,103.811092 36.5919425,100.287158 C37.8501465,96.7637564 44.1438243,71.8448168 45.27658,70.5861932 C46.4093357,69.3275696 81.5252939,52.4631831 94.489526,34.2147358 L77.7655656,0.395073861 Z" id="Fill-6" fill="#C4DAF9" mask="url(#mask-4)"></path>
                </g>
                <path d="M306.422675,46.2071771 C304.624405,45.4162852 275.802657,121.989817 275.802657,121.989817 L276.435745,128.062357 L279.978597,123.381319 C279.978597,123.381319 309.585461,47.598679 306.422675,46.2071771" id="Fill-9" fill="#365279"></path>
                <polygon id="Fill-11" fill="#365279" points="109.947183 118.081918 118.179462 141.437145 120.444974 143.012551 111.187845 117.498848"></polygon>
                <polygon id="Fill-13" fill="#365279" points="112.881185 114.737636 134.416301 126.966163 135.566598 129.474906 112.088097 115.85594"></polygon>
                <polygon id="Fill-15" fill="#365279" points="132.527081 115.369818 106.322737 136.448574 105.705063 135.680537 131.908876 114.601781"></polygon>
                <polygon id="Fill-17" fill="#365279" points="106.458816 112.178187 101.867727 107.178772 103.088722 106.057279 107.679811 111.057225"></polygon>
                <path d="M109.574453,116.970098 C108.123824,116.970098 106.943759,115.795454 106.943759,114.344423 C106.943759,112.893391 108.123824,111.713432 109.574453,111.713432 C111.025613,111.713432 112.200362,112.893391 112.200362,114.344423 C112.200362,115.795454 111.025613,116.970098 109.574453,116.970098 M109.574453,110.629144 C107.517313,110.629144 105.853528,112.292781 105.853528,114.344423 C105.853528,116.396064 107.517313,118.059701 109.574453,118.059701 C111.626277,118.059701 113.290061,116.396064 113.290061,114.344423 C113.290061,112.292781 111.626277,110.629144 109.574453,110.629144" id="Fill-19" fill="#365279"></path>
                <g id="Group-23" transform="translate(288.236551, 276.219519)">
                    <mask id="mask-6" fill="white">
                        <use xlink:href="#path-5"></use>
                    </mask>
                    <g id="Clip-22"></g>
                    <path d="M17.4573015,10.4876085 C11.5144537,9.50058824 9.87458914,31.3032652 8.33253176,35.6526388 C6.79100594,40.0020124 0.21560099,54.495318 0.662111917,60.4456098 C1.10862284,66.3959015 4.4776541,76.5424911 4.16509645,81.6296052 C3.85307036,86.7161878 0.45267703,115.889892 0.45267703,115.889892 L28.2123676,118.527792 C28.2123676,118.527792 22.0223441,84.4391847 24.6833366,80.2418239 C27.3448607,76.0449946 44.4292192,46.8335533 43.173673,42.1030846 C41.9175953,37.3731475 39.4118185,20.8840093 38.0457077,19.7481653 C36.68066,18.6128528 25.8543647,5.42175491 22.8228744,4.56867601 C17.8889287,3.17983167 10.8670128,0.282020975 10.8670128,0.282020975 C10.8670128,0.282020975 9.44508815,4.12486238 13.2515938,7.14757871 C14.5321234,8.16436371 17.1585644,9.1444743 19.4400226,11.323679 C24.6525061,16.3023644 30.3566832,23.6250236 30.4332279,24.0316313 C30.5437926,24.6168274 30.793626,38.1390582 30.7425962,38.5121805 C30.6915664,38.8853029 24.8959609,52.1545333 18.0372341,53.6911383 C18.0372341,53.6911383 18.2408218,40.0222099 17.7108559,37.8919045 C17.0299267,35.1556738 23.774368,11.5373473 17.4573015,10.4876085" id="Fill-21" fill="#C4DAF9" mask="url(#mask-6)"></path>
                </g>
                <path d="M306.117984,311.297645 L309.398777,311.297645 L310.481034,252.394806 L304.905495,252.292224 C305.709214,264.642468 305.693799,286.707181 305.693799,286.707181 C309.167548,287.445984 308.558911,294.931287 307.69353,301.543312 C307.132202,305.832094 306.545891,307.883203 306.117984,311.297645" id="Fill-24" fill="#365279"></path>
                <path d="M332.973703,227.020094 C331.129188,240.563053 318.658244,250.045251 305.114611,248.2009 C291.569914,246.356549 282.087404,233.887246 283.93192,220.344286 C285.771119,206.801326 298.246847,197.319129 311.790481,199.16348 C325.335177,201.002516 334.818218,213.477134 332.973703,227.020094 M312.359782,194.975155 C296.503328,192.817211 281.901358,203.920524 279.74269,219.775567 C277.585086,235.63061 288.688856,250.231281 304.545841,252.389225 C320.402294,254.547169 335.003733,243.443856 337.162401,227.588813 C339.320005,211.73377 328.216235,197.133099 312.359782,194.975155" id="Fill-26" fill="#365279"></path>
                <path d="M152.031316,367.033622 C152.031316,367.033622 125.958267,324.093722 123.197873,316.732794 C120.436947,309.371866 125.345378,289.742016 125.345378,286.981867 C125.345378,284.221187 123.958005,282.286478 123.958005,282.286478 C123.436544,281.264378 120.462994,288.954313 114.052904,279.182972 C107.094776,268.578218 115.974496,263.766959 115.974496,263.766959 C115.974496,263.766959 110.400551,261.214632 109.669655,261.944931 C108.939291,262.675231 108.354574,265.450793 106.893846,266.181093 C105.432585,266.911923 90.2384565,270.417785 88.9233755,271.586583 C87.608826,272.755381 83.0799295,281.666733 83.0799295,282.250867 C83.0799295,282.835 85.1253748,306.20883 97.1051566,310.007024 L115.974496,370.00797 L152.031316,367.033622 Z" id="Fill-28" fill="#C4DAF9"></path>
                <path d="M121.528879,325.609333 C121.528879,329.883231 118.063635,333.348167 113.789356,333.348167 C109.514546,333.348167 106.049834,329.883231 106.049834,325.609333 C106.049834,321.335434 109.514546,317.870498 113.789356,317.870498 C118.063635,317.870498 121.528879,321.335434 121.528879,325.609333" id="Fill-30" fill="#365279"></path>
                <path d="M123.19782,316.732688 C123.300411,317.706952 102.776855,325.192254 101.187489,322.988068 C100.783503,323.059823 102.344697,329.811636 103.402502,330.031151 C104.031338,330.161904 125.052967,326.70122 125.924726,321.78047 C125.719544,319.087823 123.19782,316.732688 123.19782,316.732688" id="Fill-32" fill="#365279"></path>
                <polygon id="Stroke-34" stroke="#365279" stroke-width="0.531309298" points="193.567198 219.924284 225.518776 219.924284 225.518776 157.553321 193.567198 157.553321"></polygon>
                <polygon id="Stroke-36" stroke="#365279" stroke-width="0.531309298" points="192.964408 202.267411 226.120502 202.267411 226.120502 195.204662 192.964408 195.204662"></polygon>
                <path d="M225.518563,195.204556 L193.566985,195.204556 L193.566985,179.739112 C193.566985,171.94128 199.888836,165.619461 207.687893,165.619461 L211.397655,165.619461 C219.196181,165.619461 225.518563,171.94128 225.518563,179.739112 L225.518563,195.204556 Z" id="Stroke-37" stroke="#365279" stroke-width="0.531309298"></path>
                <polygon id="Stroke-38" stroke="#365279" stroke-width="0.531309298" points="193.567198 219.924284 225.518776 219.924284 225.518776 202.267411 193.567198 202.267411"></polygon>
                <polygon id="Stroke-39" stroke="#365279" stroke-width="0.531309298" points="204.021932 219.924284 204.755486 219.924284 204.755486 202.267411 204.021932 202.267411"></polygon>
                <polygon id="Stroke-40" stroke="#365279" stroke-width="0.531309298" points="214.365039 219.924284 215.098593 219.924284 215.098593 202.267411 214.365039 202.267411"></polygon>
                <polygon id="Stroke-41" stroke="#365279" stroke-width="0.531309298" points="232.307868 219.021243 291.130898 219.021243 291.130898 186.463925 232.307868 186.463925"></polygon>
                <polygon id="Stroke-42" stroke="#365279" stroke-width="0.531309298" points="232.307868 219.021243 291.823522 219.021243 291.823522 208.962353 232.307868 208.962353"></polygon>
                <polygon id="Stroke-43" stroke="#365279" stroke-width="0.531309298" points="232.307868 186.463925 291.823522 186.463925 291.823522 182.877273 232.307868 182.877273"></polygon>
                <polygon id="Stroke-44" stroke="#365279" stroke-width="0.531309298" points="238.991711 216.848417 247.620003 216.848417 247.620003 193.392202 238.991711 193.392202"></polygon>
                <polygon id="Stroke-45" stroke="#365279" stroke-width="0.531309298" points="239.804467 216.163828 246.806184 216.163828 246.806184 197.83087 239.804467 197.83087"></polygon>
                <polygon id="Stroke-46" stroke="#365279" stroke-width="0.531309298" points="239.804467 204.028315 246.806184 204.028315 246.806184 203.372428 239.804467 203.372428"></polygon>
                <polygon id="Stroke-47" stroke="#365279" stroke-width="0.531309298" points="239.804467 210.484076 246.806184 210.484076 246.806184 209.828189 239.804467 209.828189"></polygon>
                <polygon id="Stroke-48" stroke="#365279" stroke-width="0.531309298" points="243.058682 216.163828 243.552501 216.163828 243.552501 197.83087 243.058682 197.83087"></polygon>
                <polygon id="Stroke-49" stroke="#365279" stroke-width="0.531309298" points="242.754097 192.133578 243.857617 192.133578 243.857617 188.693624 242.754097 188.693624"></polygon>
                <polygon id="Stroke-50" stroke="#365279" stroke-width="0.531309298" points="256.872879 216.848417 265.501171 216.848417 265.501171 193.392202 256.872879 193.392202"></polygon>
                <polygon id="Stroke-51" stroke="#365279" stroke-width="0.531309298" points="257.686167 216.163828 264.687883 216.163828 264.687883 197.83087 257.686167 197.83087"></polygon>
                <polygon id="Stroke-52" stroke="#365279" stroke-width="0.531309298" points="257.686167 204.028315 264.687883 204.028315 264.687883 203.372428 257.686167 203.372428"></polygon>
                <polygon id="Stroke-53" stroke="#365279" stroke-width="0.531309298" points="257.686167 210.484076 264.687883 210.484076 264.687883 209.828189 257.686167 209.828189"></polygon>
                <polygon id="Stroke-54" stroke="#365279" stroke-width="0.531309298" points="260.939849 216.163828 261.434201 216.163828 261.434201 197.83087 260.939849 197.83087"></polygon>
                <polygon id="Stroke-55" stroke="#365279" stroke-width="0.531309298" points="260.635265 192.133578 261.738785 192.133578 261.738785 188.693624 260.635265 188.693624"></polygon>
                <polygon id="Stroke-56" stroke="#365279" stroke-width="0.531309298" points="274.754579 216.848417 283.382339 216.848417 283.382339 193.392202 274.754579 193.392202"></polygon>
                <polygon id="Stroke-57" stroke="#365279" stroke-width="0.531309298" points="275.567866 216.163828 282.569051 216.163828 282.569051 197.83087 275.567866 197.83087"></polygon>
                <polygon id="Stroke-58" stroke="#365279" stroke-width="0.531309298" points="275.567866 204.028315 282.569051 204.028315 282.569051 203.372428 275.567866 203.372428"></polygon>
                <polygon id="Stroke-59" stroke="#365279" stroke-width="0.531309298" points="275.567866 210.484076 282.569051 210.484076 282.569051 209.828189 275.567866 209.828189"></polygon>
                <polygon id="Stroke-60" stroke="#365279" stroke-width="0.531309298" points="278.821549 216.163828 279.315369 216.163828 279.315369 197.83087 278.821549 197.83087"></polygon>
                <polygon id="Stroke-61" stroke="#365279" stroke-width="0.531309298" points="278.516965 192.133578 279.619953 192.133578 279.619953 188.693624 278.516965 188.693624"></polygon>
                <polygon id="Stroke-62" stroke="#365279" stroke-width="0.531309298" points="225.518776 220.48822 232.307868 220.48822 232.307868 157.553321 225.518776 157.553321"></polygon>
                <polygon id="Stroke-63" stroke="#365279" stroke-width="0.531309298" points="224.708677 157.553321 233.117435 157.553321 233.117435 154.285577 224.708677 154.285577"></polygon>
                <polygon id="Stroke-64" stroke="#365279" stroke-width="0.531309298" points="224.708677 220.48822 233.117435 220.48822 233.117435 208.548304 224.708677 208.548304"></polygon>
                <polygon id="Stroke-65" stroke="#365279" stroke-width="0.531309298" points="128.187899 219.021243 187.010929 219.021243 187.010929 186.463925 128.187899 186.463925"></polygon>
                <polygon id="Stroke-66" stroke="#365279" stroke-width="0.531309298" points="127.495275 219.021243 187.010929 219.021243 187.010929 208.962353 127.495275 208.962353"></polygon>
                <polygon id="Stroke-67" stroke="#365279" stroke-width="0.531309298" points="127.495275 186.463925 187.010929 186.463925 187.010929 182.877273 127.495275 182.877273"></polygon>
                <polygon id="Stroke-68" stroke="#365279" stroke-width="0.531309298" points="171.699325 216.848417 180.327617 216.848417 180.327617 193.392202 171.699325 193.392202"></polygon>
                <polygon id="Stroke-69" stroke="#365279" stroke-width="0.531309298" points="172.512613 216.163828 179.51433 216.163828 179.51433 197.83087 172.512613 197.83087"></polygon>
                <polygon id="Stroke-70" stroke="#365279" stroke-width="0.531309298" points="172.512613 204.028315 179.51433 204.028315 179.51433 203.372428 172.512613 203.372428"></polygon>
                <polygon id="Stroke-71" stroke="#365279" stroke-width="0.531309298" points="172.512613 210.484076 179.51433 210.484076 179.51433 209.828189 172.512613 209.828189"></polygon>
                <polygon id="Stroke-72" stroke="#365279" stroke-width="0.531309298" points="175.766296 216.163828 176.260115 216.163828 176.260115 197.83087 175.766296 197.83087"></polygon>
                <polygon id="Stroke-73" stroke="#365279" stroke-width="0.531309298" points="175.461711 192.133578 176.565231 192.133578 176.565231 188.693624 175.461711 188.693624"></polygon>
                <polygon id="Stroke-74" stroke="#365279" stroke-width="0.531309298" points="153.817626 216.848417 162.445918 216.848417 162.445918 193.392202 153.817626 193.392202"></polygon>
                <polygon id="Stroke-75" stroke="#365279" stroke-width="0.531309298" points="154.630913 216.163828 161.63263 216.163828 161.63263 197.83087 154.630913 197.83087"></polygon>
                <polygon id="Stroke-76" stroke="#365279" stroke-width="0.531309298" points="154.630913 204.028315 161.63263 204.028315 161.63263 203.372428 154.630913 203.372428"></polygon>
                <polygon id="Stroke-77" stroke="#365279" stroke-width="0.531309298" points="154.630913 210.484076 161.63263 210.484076 161.63263 209.828189 154.630913 209.828189"></polygon>
                <polygon id="Stroke-78" stroke="#365279" stroke-width="0.531309298" points="157.885128 216.163828 158.378947 216.163828 158.378947 197.83087 157.885128 197.83087"></polygon>
                <polygon id="Stroke-79" stroke="#365279" stroke-width="0.531309298" points="157.580012 192.133578 158.683532 192.133578 158.683532 188.693624 157.580012 188.693624"></polygon>
                <polygon id="Stroke-80" stroke="#365279" stroke-width="0.531309298" points="135.936458 216.848417 144.564218 216.848417 144.564218 193.392202 135.936458 193.392202"></polygon>
                <polygon id="Stroke-81" stroke="#365279" stroke-width="0.531309298" points="136.749746 216.163828 143.750931 216.163828 143.750931 197.83087 136.749746 197.83087"></polygon>
                <polygon id="Stroke-82" stroke="#365279" stroke-width="0.531309298" points="136.749746 204.028315 143.750931 204.028315 143.750931 203.372428 136.749746 203.372428"></polygon>
                <polygon id="Stroke-83" stroke="#365279" stroke-width="0.531309298" points="136.749746 210.484076 143.750931 210.484076 143.750931 209.828189 136.749746 209.828189"></polygon>
                <polygon id="Stroke-84" stroke="#365279" stroke-width="0.531309298" points="140.00396 216.163828 140.49778 216.163828 140.49778 197.83087 140.00396 197.83087"></polygon>
                <polygon id="Stroke-85" stroke="#365279" stroke-width="0.531309298" points="139.698844 192.133578 140.801832 192.133578 140.801832 188.693624 139.698844 188.693624"></polygon>
                <polygon id="Stroke-86" stroke="#365279" stroke-width="0.531309298" points="187.011461 220.48822 193.801084 220.48822 193.801084 157.553321 187.011461 157.553321"></polygon>
                <polygon id="Stroke-87" stroke="#365279" stroke-width="0.531309298" points="186.201362 157.553321 194.61012 157.553321 194.61012 154.285577 186.201362 154.285577"></polygon>
                <polygon id="Stroke-88" stroke="#365279" stroke-width="0.531309298" points="186.201362 220.48822 194.61012 220.48822 194.61012 208.548304 186.201362 208.548304"></polygon>
                <polygon id="Stroke-89" stroke="#365279" stroke-width="0.531309298" points="100.376115 222.449504 318.94215 222.449504 318.94215 219.021243 100.376115 219.021243"></polygon>
                <path d="M311.330787,215.712732 C306.979963,216.205977 303.444022,214.745909 304.105283,211.845973 C304.766545,208.946036 304.613987,206.096593 304.257841,204.926732 C303.901696,203.75634 303.639105,203.095137 304.025018,201.7722 C304.410399,200.449264 307.345677,199.075833 307.582753,197.091162 C307.820361,195.107023 307.565743,191.952492 309.244411,191.749453 C310.923611,191.545884 310.813578,197.803922 311.886268,198.363074 C312.958957,198.923289 314.434569,199.634985 314.485599,200.907428 C314.536097,202.17934 313.51869,203.705846 313.976896,205.130302 C314.434569,206.554757 315.910182,207.114441 316.06274,209.09858 C316.215298,211.082719 316.06274,214.084707 314.841213,214.593365 C313.62075,215.102555 312.246134,215.609087 311.330787,215.712732 Z" id="Stroke-90" stroke="#365279" stroke-width="0.531309298"></path>
                <path d="M310.037713,203.850471 C309.770869,203.850471 309.868145,219.228214 309.868145,219.228214 L310.036118,219.228214 C310.036118,219.228214 310.38429,203.850471 310.037713,203.850471 Z" id="Stroke-91" stroke="#365279" stroke-width="0.531309298"></path>
                <path d="M306.224403,208.242206 C306.118091,208.348509 309.94958,212.173279 309.94958,212.173279 L310.161672,211.961205 C310.161672,211.961205 306.36314,208.104012 306.224403,208.242206 Z" id="Stroke-92" stroke="#365279" stroke-width="0.531309298"></path>
                <path d="M312.768712,205.497684 C312.847383,205.576348 310.007786,208.410908 310.007786,208.410908 L309.850444,208.254112 C309.850444,208.254112 312.66612,205.395102 312.768712,205.497684 Z" id="Stroke-93" stroke="#365279" stroke-width="0.531309298"></path>
                <path d="M117.113896,215.712732 C112.763072,216.205977 109.227131,214.745909 109.888392,211.845973 C110.549654,208.946036 110.397096,206.096593 110.04095,204.926732 C109.684805,203.75634 109.422214,203.095137 109.808127,201.7722 C110.193508,200.449264 113.128786,199.075833 113.365862,197.091162 C113.60347,195.107023 113.34832,191.952492 115.027521,191.749453 C116.706721,191.545884 116.596687,197.803922 117.669377,198.363074 C118.742066,198.923289 120.217678,199.634985 120.268708,200.907428 C120.319207,202.17934 119.3018,203.705846 119.760005,205.130302 C120.217678,206.554757 121.693291,207.114441 121.845849,209.09858 C121.998407,211.082719 121.845849,214.084707 120.624322,214.593365 C119.403859,215.102555 118.029243,215.609087 117.113896,215.712732 Z" id="Stroke-94" stroke="#365279" stroke-width="0.531309298"></path>
                <path d="M115.820822,203.850471 C115.553978,203.850471 115.651254,219.228214 115.651254,219.228214 L115.819227,219.228214 C115.819227,219.228214 116.167399,203.850471 115.820822,203.850471 Z" id="Stroke-95" stroke="#365279" stroke-width="0.531309298"></path>
                <path d="M112.007512,208.242206 C111.9012,208.348509 115.732689,212.173279 115.732689,212.173279 L115.944782,211.961205 C115.944782,211.961205 112.146249,208.104012 112.007512,208.242206 Z" id="Stroke-96" stroke="#365279" stroke-width="0.531309298"></path>
                <path d="M118.551821,205.497684 C118.630492,205.576348 115.790895,208.410908 115.790895,208.410908 L115.633553,208.254112 C115.633553,208.254112 118.449229,205.395102 118.551821,205.497684 Z" id="Stroke-97" stroke="#365279" stroke-width="0.531309298"></path>
                <path d="M283.928465,220.34503 C282.085012,233.88799 291.570712,246.361545 305.115408,248.204302 C318.660104,250.04759 331.134238,240.562734 332.977158,227.019243 C334.820079,213.476283 325.33438,201.002729 311.790215,199.159972 C298.24605,197.316684 285.771917,206.802071 283.928465,220.34503" id="Fill-98" fill="#F4F6F8"></path>
                <g id="Group-286" transform="translate(287.173430, 198.618572)">
                    <g id="Group-123" transform="translate(0.000000, 17.008427)">
                        <mask id="mask-8" fill="white">
                            <use xlink:href="#path-7"></use>
                        </mask>
                        <g id="Clip-122"></g>
                        <path d="M-53.1161956,16.9355562 C-32.4262614,19.7297218 -11.8399814,21.450762 8.24716313,21.6936636 C7.97659877,15.2969006 7.70550285,8.89960611 7.43493849,2.50231162 C-12.4422396,2.38059507 -32.8137691,1.51848044 -53.2868266,0.118474322 C-53.2299496,5.72434545 -53.1730726,11.3296851 -53.1161956,16.9355562 Z" id="Stroke-121" stroke="#365279" stroke-width="0.531309298" mask="url(#mask-8)"></path>
                    </g>
                    <g id="Group-264" transform="translate(0.000000, 3.720593)">
                        <mask id="mask-10" fill="white">
                            <use xlink:href="#path-9"></use>
                        </mask>
                        <g id="Clip-263"></g>
                        <path d="M35.7317711,40.7895557 C-36.322335,45.8942098 -117.564998,24.7638972 -188.361432,0.859616515 C-188.220568,0.649137234 -188.080236,0.439189468 -187.938841,0.229241701 C-117.393836,20.6590197 -36.4398099,38.7177167 35.358084,34.3550553 C35.4824692,36.4997116 35.6073859,38.6448994 35.7317711,40.7895557 Z" id="Stroke-262" stroke="#365279" stroke-width="0.531309298" mask="url(#mask-10)"></path>
                    </g>
                    <g id="Group-267" transform="translate(18.604622, 0.000000)">
                        <mask id="mask-12" fill="white">
                            <use xlink:href="#path-11"></use>
                        </mask>
                        <g id="Clip-266"></g>
                        <path d="M8.88540797,32.1797307 C4.62176018,33.2624233 0.947613129,30.5230036 1.33990487,24.9856977 C1.72422321,19.4499863 1.30322719,14.0253612 0.842364125,11.7967258 C0.381501062,9.56968497 0.0620331251,8.30893534 0.317713787,5.78637306 C0.576052251,3.26221624 3.31943665,0.643450042 3.35451965,-3.12763706 C3.39226045,-6.89872416 2.8394374,-12.9037618 4.44475049,-13.2689115 C6.04740578,-13.6324666 6.570993,-1.76430536 7.6713235,-0.704999286 C8.77059087,0.357495868 10.2770337,1.70116158 10.459359,4.10253882 C10.643279,6.50338455 9.80872878,9.39747465 10.4030136,12.0858691 C10.998893,14.7721375 12.4994887,15.7995528 12.8593552,19.5339654 C13.2186902,23.2694411 13.3903843,28.9300582 12.239024,29.9383389 C11.0892583,30.9450252 9.78215075,31.9527745 8.88540797,32.1797307 Z" id="Stroke-265" stroke="#365279" stroke-width="0.531309298" mask="url(#mask-12)"></path>
                    </g>
                    <path d="M25.0242796,9.70718747 C24.7638149,9.70984503 26.3893273,38.8968367 26.3898589,38.8973682 C26.4462043,38.8952422 26.5014866,38.8931161 26.5573005,38.8915216 C26.5594267,38.8893955 25.3655416,9.70293536 25.0242796,9.70718747 Z" id="Stroke-268" stroke="#365279" stroke-width="0.531309298"></path>
                    <path d="M21.7025573,18.0951588 C21.6052817,18.3077642 25.7663383,25.5134904 25.7679329,25.5044547 C25.8311887,25.3689188 25.8939128,25.2328514 25.956637,25.096784 C25.9539792,25.1063512 21.8242847,17.8400324 21.7025573,18.0951588 Z" id="Stroke-270" stroke="#365279" stroke-width="0.531309298"></path>
                    <path d="M27.8647802,12.7979375 C27.9535508,12.9430406 25.4536211,18.359693 25.4499002,18.3628821 C25.3930232,18.2645521 25.3361462,18.1656907 25.2792693,18.0673607 C25.2829902,18.0636401 27.7568733,12.6023406 27.8647802,12.7979375 Z" id="Stroke-272" stroke="#365279" stroke-width="0.531309298"></path>
                </g>
                <mask id="mask-14" fill="white">
                    <use xlink:href="#path-13"></use>
                </mask>
                <g id="Mask"></g>
            </g>
        </g>
    </g>
</svg>