<?xml version="1.0" encoding="UTF-8"?>
<svg width="232px" height="37px" viewBox="0 0 232 37" version="1.1" xmlns="http://www.w3.org/2000/svg" xmlns:xlink="http://www.w3.org/1999/xlink">
    <!-- Generator: Sketch 48.1 (47250) - http://www.bohemiancoding.com/sketch -->
    <title>SA - Logo - Web</title>
    <desc>Created with Sketch.</desc>
    <defs>
        <path d="M16.5408579,18.2597403 L40.2593017,18.2597403 C40.6538232,18.2597403 40.9736842,17.9448104 40.9736842,17.5563712 L40.9736842,10.7942782 C40.9736842,10.4058389 40.6538232,10.0909091 40.2593017,10.0909091 L16.5408579,10.0909091 C14.5996864,10.0909091 13.0263158,11.6400234 13.0263158,13.5512684 L13.0263158,14.799381 C13.0263158,16.7106259 14.5996864,18.2597403 16.5408579,18.2597403" id="path-1"></path>
        <filter x="-7.2%" y="-12.2%" width="114.3%" height="149.0%" filterUnits="objectBoundingBox" id="filter-2">
            <feOffset dx="0" dy="1" in="SourceAlpha" result="shadowOffsetOuter1"></feOffset>
            <feGaussianBlur stdDeviation="0.5" in="shadowOffsetOuter1" result="shadowBlurOuter1"></feGaussianBlur>
            <feColorMatrix values="0 0 0 0 0.113202072   0 0 0 0 0.255836303   0 0 0 0 0.425382653  0 0 0 0.371659873 0" type="matrix" in="shadowBlurOuter1"></feColorMatrix>
        </filter>
        <path d="M37.4591421,28.3506494 L13.7406983,28.3506494 C13.3461768,28.3506494 13.0263158,28.0357195 13.0263158,27.6472803 L13.0263158,20.8851873 C13.0263158,20.496748 13.3461768,20.1818182 13.7406983,20.1818182 L37.4591421,20.1818182 C39.4003136,20.1818182 40.9736842,21.7309325 40.9736842,23.6421775 L40.9736842,24.8902901 C40.9736842,26.801535 39.4003136,28.3506494 37.4591421,28.3506494" id="path-3"></path>
        <filter x="-7.2%" y="-12.2%" width="114.3%" height="149.0%" filterUnits="objectBoundingBox" id="filter-4">
            <feOffset dx="0" dy="1" in="SourceAlpha" result="shadowOffsetOuter1"></feOffset>
            <feGaussianBlur stdDeviation="0.5" in="shadowOffsetOuter1" result="shadowBlurOuter1"></feGaussianBlur>
            <feColorMatrix values="0 0 0 0 0.113202072   0 0 0 0 0.255836303   0 0 0 0 0.425382653  0 0 0 0.371659873 0" type="matrix" in="shadowBlurOuter1"></feColorMatrix>
        </filter>
    </defs>
    <g id="Nav" stroke="none" stroke-width="1" fill="none" fill-rule="evenodd" transform="translate(-90.000000, -14.000000)">
        <g id="SA---Logo---Web">
            <g transform="translate(90.000000, 14.000000)">
                <g id="SA-Logo-">
                    <path d="M39.2120654,4.80519481 L14.7879346,4.80519481 C10.544779,4.80519481 7.10526316,8.33725872 7.10526316,12.6945861 L7.10526316,26.2708074 C7.10526316,30.6281348 10.544779,34.1601987 14.7879346,34.1601987 L39.2120654,34.1601987 C39.4851168,34.1601987 39.7511867,34.1506397 40.013378,34.1586056 L39.9202923,34.1586056 C40.3104764,34.1586056 41.3592418,34.074964 42.0519544,34.8189757 C42.24278,34.9910383 42.4281757,35.1694737 42.6081413,35.3542817 L43.6406166,36.4201142 C44.8390948,37.6564163 46.8947368,36.7849508 46.8947368,35.0404267 L46.8947368,26.2708074 L46.8947368,19.6766655 L46.8947368,12.6945861 C46.8947368,8.33725872 43.455221,4.80519481 39.2120654,4.80519481" id="Fill-1" fill="#6BA3F1"></path>
                    <g id="Fill-5">
                        <use fill="black" fill-opacity="1" filter="url(#filter-2)" xlink:href="#path-1"></use>
                        <use fill="#FFFFFF" fill-rule="evenodd" xlink:href="#path-1"></use>
                    </g>
                    <g id="Fill-8">
                        <use fill="black" fill-opacity="1" filter="url(#filter-4)" xlink:href="#path-3"></use>
                        <use fill="#FFFFFF" fill-rule="evenodd" xlink:href="#path-3"></use>
                    </g>
                    <g id="Group" fill="#6BA3F1">
                        <path d="M53.2586953,1.2012987 L0.741304724,1.2012987 C0.33171829,1.2012987 0,1.02379151 0,0.804615953 L0,0.396682748 C0,0.177507196 0.33171829,0 0.741304724,0 L53.2586953,0 C53.6682817,0 54,0.177507196 54,0.396682748 L54,0.804615953 C54,1.02379151 53.6682817,1.2012987 53.2586953,1.2012987" id="Fill-10"></path>
                        <polygon id="Fill-13" points="51.1578947 11.2922078 51.6341333 11.2922078 51.6341333 0 51.1578947 0"></polygon>
                        <path d="M49.673819,14.1753247 C49.5775802,14.1753247 49.5,14.1152326 49.5,14.0406879 L49.5,12.1801148 C49.5,11.4240192 50.2905327,10.8116883 51.2656868,10.8116883 L51.759647,10.8116883 C52.7357831,10.8116883 53.5263158,11.4240192 53.5263158,12.1801148 L53.5263158,14.0406879 C53.5263158,14.1152326 53.4487356,14.1753247 53.3524968,14.1753247 L49.673819,14.1753247 Z" id="Fill-15"></path>
                    </g>
                </g>
                <path d="M96.766,14.87 C96.6273326,13.5353267 96.1463375,12.569003 95.323,11.971 C94.4996625,11.372997 93.4466731,11.074 92.164,11.074 C91.6439974,11.074 91.1326692,11.1259995 90.63,11.23 C90.1273308,11.3340005 89.6810019,11.5073321 89.291,11.75 C88.900998,11.9926679 88.5890012,12.3176646 88.355,12.725 C88.1209988,13.1323354 88.004,13.6393303 88.004,14.246 C88.004,14.8180029 88.1729983,15.2816649 88.511,15.637 C88.8490017,15.9923351 89.2996639,16.2826655 89.863,16.508 C90.4263361,16.7333345 91.0633298,16.9196659 91.774,17.067 C92.4846702,17.2143341 93.2083296,17.3746658 93.945,17.548 C94.6816704,17.7213342 95.4053298,17.9249988 96.116,18.159 C96.8266702,18.3930012 97.4636639,18.7093313 98.027,19.108 C98.5903361,19.5066687 99.0409983,20.0093303 99.379,20.616 C99.7170017,21.2226697 99.886,21.9853287 99.886,22.904 C99.886,23.8920049 99.6650022,24.7369965 99.223,25.439 C98.7809978,26.1410035 98.2133368,26.7129978 97.52,27.155 C96.8266632,27.5970022 96.0510043,27.9176657 95.193,28.117 C94.3349957,28.3163343 93.4813376,28.416 92.632,28.416 C91.5919948,28.416 90.608338,28.2860013 89.681,28.026 C88.753662,27.7659987 87.9390035,27.3716693 87.237,26.843 C86.5349965,26.3143307 85.9803354,25.6383375 85.573,24.815 C85.1656646,23.9916626 84.962,23.0166723 84.962,21.89 L87.302,21.89 C87.302,22.6700039 87.4536652,23.3416638 87.757,23.905 C88.0603349,24.4683361 88.4589975,24.9319982 88.953,25.296 C89.4470025,25.6600018 90.02333,25.9286658 90.682,26.102 C91.34067,26.2753342 92.0166632,26.362 92.71,26.362 C93.2646694,26.362 93.8236639,26.3100005 94.387,26.206 C94.9503361,26.1019995 95.4573311,25.9243346 95.908,25.673 C96.3586689,25.4216654 96.7226653,25.0793355 97,24.646 C97.2773347,24.2126645 97.416,23.6580034 97.416,22.982 C97.416,22.3406635 97.2470017,21.8206687 96.909,21.422 C96.5709983,21.0233313 96.1203361,20.6983346 95.557,20.447 C94.9936639,20.1956654 94.3566702,19.9920008 93.646,19.836 C92.9353298,19.6799992 92.2116704,19.5196675 91.475,19.355 C90.7383296,19.1903325 90.0146702,18.9996678 89.304,18.783 C88.5933298,18.5663322 87.9563361,18.2803351 87.393,17.925 C86.8296639,17.5696649 86.3790017,17.1103361 86.041,16.547 C85.7029983,15.9836638 85.534,15.2773376 85.534,14.428 C85.534,13.4919953 85.7246648,12.6816701 86.106,11.997 C86.4873352,11.3123299 86.9943302,10.7490022 87.627,10.307 C88.2596698,9.86499779 88.978996,9.53566775 89.785,9.319 C90.591004,9.10233225 91.4186624,8.994 92.268,8.994 C93.2213381,8.994 94.1053293,9.10666554 94.92,9.332 C95.7346707,9.55733446 96.4496636,9.91266424 97.065,10.398 C97.6803364,10.8833358 98.1656649,11.4943296 98.521,12.231 C98.8763351,12.9676703 99.0713332,13.8473282 99.106,14.87 L96.766,14.87 Z M102.512,14.558 L104.592,14.558 L104.592,16.534 L104.644,16.534 C105.649338,15.008659 107.096657,14.246 108.986,14.246 C109.818004,14.246 110.571997,14.4193316 111.248,14.766 C111.924003,15.1126684 112.400665,15.7019958 112.678,16.534 C113.128669,15.8059964 113.72233,15.2426687 114.459,14.844 C115.19567,14.4453313 116.005996,14.246 116.89,14.246 C117.566003,14.246 118.176997,14.3196659 118.723,14.467 C119.269003,14.6143341 119.736998,14.8439984 120.127,15.156 C120.517002,15.4680016 120.820332,15.8709975 121.037,16.365 C121.253668,16.8590025 121.362,17.4526632 121.362,18.146 L121.362,28 L119.152,28 L119.152,19.186 C119.152,18.7699979 119.117334,18.3800018 119.048,18.016 C118.978666,17.6519982 118.848668,17.335668 118.658,17.067 C118.467332,16.798332 118.203002,16.5860008 117.865,16.43 C117.526998,16.2739992 117.089336,16.196 116.552,16.196 C115.459995,16.196 114.602003,16.5079969 113.978,17.132 C113.353997,17.7560031 113.042,18.5879948 113.042,19.628 L113.042,28 L110.832,28 L110.832,19.186 C110.832,18.7526645 110.793,18.3540018 110.715,17.99 C110.637,17.6259982 110.502668,17.309668 110.312,17.041 C110.121332,16.772332 109.865668,16.5643341 109.545,16.417 C109.224332,16.2696659 108.812669,16.196 108.31,16.196 C107.668663,16.196 107.118336,16.3259987 106.659,16.586 C106.199664,16.8460013 105.827001,17.1579982 105.541,17.522 C105.254999,17.8860018 105.047001,18.2629981 104.917,18.653 C104.786999,19.0430019 104.722,19.3679987 104.722,19.628 L104.722,28 L102.512,28 L102.512,14.558 Z M136.598,27.948 C136.216665,28.1733345 135.688003,28.286 135.012,28.286 C134.439997,28.286 133.985002,28.1256683 133.647,27.805 C133.308998,27.4843317 133.14,26.9600036 133.14,26.232 C132.53333,26.9600036 131.827004,27.4843317 131.021,27.805 C130.214996,28.1256683 129.344005,28.286 128.408,28.286 C127.80133,28.286 127.225003,28.2166674 126.679,28.078 C126.132997,27.9393326 125.660669,27.7226681 125.262,27.428 C124.863331,27.1333319 124.547001,26.747669 124.313,26.271 C124.078999,25.7943309 123.962,25.2180034 123.962,24.542 C123.962,23.7793295 124.091999,23.1553358 124.352,22.67 C124.612001,22.1846642 124.954331,21.7903349 125.379,21.487 C125.803669,21.1836651 126.288997,20.9540008 126.835,20.798 C127.381003,20.6419992 127.939997,20.5120005 128.512,20.408 C129.11867,20.2866661 129.694997,20.195667 130.241,20.135 C130.787003,20.074333 131.267998,19.9876672 131.684,19.875 C132.100002,19.7623328 132.429332,19.5976677 132.672,19.381 C132.914668,19.1643322 133.036,18.8480021 133.036,18.432 C133.036,17.9466642 132.945001,17.5566681 132.763,17.262 C132.580999,16.9673319 132.347001,16.7420008 132.061,16.586 C131.774999,16.4299992 131.454335,16.3260003 131.099,16.274 C130.743665,16.2219997 130.392668,16.196 130.046,16.196 C129.109995,16.196 128.330003,16.3736649 127.706,16.729 C127.081997,17.0843351 126.744,17.7559951 126.692,18.744 L124.482,18.744 C124.516667,17.9119958 124.689998,17.2100029 125.002,16.638 C125.314002,16.0659971 125.729997,15.6023351 126.25,15.247 C126.770003,14.8916649 127.363663,14.6360008 128.031,14.48 C128.698337,14.3239992 129.41333,14.246 130.176,14.246 C130.78267,14.246 131.384997,14.2893329 131.983,14.376 C132.581003,14.4626671 133.122664,14.640332 133.608,14.909 C134.093336,15.177668 134.483332,15.5546642 134.778,16.04 C135.072668,16.5253358 135.22,17.1579961 135.22,17.938 L135.22,24.854 C135.22,25.3740026 135.250333,25.7553321 135.311,25.998 C135.371667,26.2406679 135.575332,26.362 135.922,26.362 C136.112668,26.362 136.337999,26.3186671 136.598,26.232 L136.598,27.948 Z M133.01,21.058 C132.732665,21.266001 132.368669,21.4176662 131.918,21.513 C131.467331,21.6083338 130.995002,21.686333 130.501,21.747 C130.006998,21.807667 129.508669,21.8769996 129.006,21.955 C128.503331,22.0330004 128.052669,22.1586658 127.654,22.332 C127.255331,22.5053342 126.930335,22.7523317 126.679,23.073 C126.427665,23.3936683 126.302,23.8313306 126.302,24.386 C126.302,24.7500018 126.375666,25.0576654 126.523,25.309 C126.670334,25.5603346 126.860999,25.7639992 127.095,25.92 C127.329001,26.0760008 127.601998,26.1886663 127.914,26.258 C128.226002,26.3273337 128.555332,26.362 128.902,26.362 C129.630004,26.362 130.253997,26.2623343 130.774,26.063 C131.294003,25.8636657 131.718665,25.6123348 132.048,25.309 C132.377335,25.0056651 132.619999,24.6763351 132.776,24.321 C132.932001,23.9656649 133.01,23.6320016 133.01,23.32 L133.01,21.058 Z M138.574,14.558 L140.654,14.558 L140.654,17.392 L140.706,17.392 C141.243336,16.2999945 141.901996,15.4940026 142.682,14.974 C143.462004,14.4539974 144.449994,14.2113332 145.646,14.246 L145.646,16.586 C144.761996,16.586 144.008003,16.7073321 143.384,16.95 C142.759997,17.1926679 142.257335,17.5479977 141.876,18.016 C141.494665,18.4840023 141.217334,19.0516633 141.044,19.719 C140.870666,20.3863367 140.784,21.153329 140.784,22.02 L140.784,28 L138.574,28 L138.574,14.558 Z M150.378,14.558 L153.056,14.558 L153.056,16.508 L150.378,16.508 L150.378,24.854 C150.378,25.1140013 150.399666,25.3219992 150.443,25.478 C150.486334,25.6340008 150.568666,25.7553329 150.69,25.842 C150.811334,25.9286671 150.980332,25.9849999 151.197,26.011 C151.413668,26.0370001 151.695332,26.05 152.042,26.05 L153.056,26.05 L153.056,28 L151.366,28 C150.793997,28 150.304335,27.9610004 149.897,27.883 C149.489665,27.8049996 149.160335,27.662001 148.909,27.454 C148.657665,27.245999 148.471334,26.9513352 148.35,26.57 C148.228666,26.1886648 148.168,25.6860031 148.168,25.062 L148.168,16.508 L145.88,16.508 L145.88,14.558 L148.168,14.558 L148.168,10.528 L150.378,10.528 L150.378,14.558 Z M159.062,20.33 L165.354,20.33 L162.26,11.672 L162.208,11.672 L159.062,20.33 Z M160.908,9.436 L163.638,9.436 L170.892,28 L168.162,28 L166.134,22.41 L158.282,22.41 L156.202,28 L153.68,28 L160.908,9.436 Z M172.478,9.436 L174.688,9.436 L174.688,28 L172.478,28 L172.478,9.436 Z M189.248,28 L187.168,28 L187.168,25.868 L187.116,25.868 C186.647998,26.7000042 186.050004,27.310998 185.322,27.701 C184.593996,28.0910019 183.736005,28.286 182.748,28.286 C181.863996,28.286 181.127336,28.1690012 180.538,27.935 C179.948664,27.7009988 179.472002,27.3673355 179.108,26.934 C178.743998,26.5006645 178.488334,25.985003 178.341,25.387 C178.193666,24.788997 178.12,24.1260036 178.12,23.398 L178.12,14.558 L180.33,14.558 L180.33,23.658 C180.33,24.4900042 180.572664,25.1486642 181.058,25.634 C181.543336,26.1193358 182.210662,26.362 183.06,26.362 C183.736003,26.362 184.320998,26.258001 184.815,26.05 C185.309002,25.841999 185.720665,25.5473352 186.05,25.166 C186.379335,24.7846648 186.626333,24.3383359 186.791,23.827 C186.955667,23.3156641 187.038,22.7566697 187.038,22.15 L187.038,14.558 L189.248,14.558 L189.248,28 Z M192.576,14.558 L194.656,14.558 L194.656,16.534 L194.708,16.534 C195.713338,15.008659 197.160657,14.246 199.05,14.246 C199.882004,14.246 200.635997,14.4193316 201.312,14.766 C201.988003,15.1126684 202.464665,15.7019958 202.742,16.534 C203.192669,15.8059964 203.78633,15.2426687 204.523,14.844 C205.25967,14.4453313 206.069996,14.246 206.954,14.246 C207.630003,14.246 208.240997,14.3196659 208.787,14.467 C209.333003,14.6143341 209.800998,14.8439984 210.191,15.156 C210.581002,15.4680016 210.884332,15.8709975 211.101,16.365 C211.317668,16.8590025 211.426,17.4526632 211.426,18.146 L211.426,28 L209.216,28 L209.216,19.186 C209.216,18.7699979 209.181334,18.3800018 209.112,18.016 C209.042666,17.6519982 208.912668,17.335668 208.722,17.067 C208.531332,16.798332 208.267002,16.5860008 207.929,16.43 C207.590998,16.2739992 207.153336,16.196 206.616,16.196 C205.523995,16.196 204.666003,16.5079969 204.042,17.132 C203.417997,17.7560031 203.106,18.5879948 203.106,19.628 L203.106,28 L200.896,28 L200.896,19.186 C200.896,18.7526645 200.857,18.3540018 200.779,17.99 C200.701,17.6259982 200.566668,17.309668 200.376,17.041 C200.185332,16.772332 199.929668,16.5643341 199.609,16.417 C199.288332,16.2696659 198.876669,16.196 198.374,16.196 C197.732663,16.196 197.182336,16.3259987 196.723,16.586 C196.263664,16.8460013 195.891001,17.1579982 195.605,17.522 C195.318999,17.8860018 195.111001,18.2629981 194.981,18.653 C194.850999,19.0430019 194.786,19.3679987 194.786,19.628 L194.786,28 L192.576,28 L192.576,14.558 Z M214.754,14.558 L216.834,14.558 L216.834,16.69 L216.886,16.69 C217.804671,15.0606585 219.260657,14.246 221.254,14.246 C222.138004,14.246 222.874664,14.3673321 223.464,14.61 C224.053336,14.8526679 224.529998,15.1906645 224.894,15.624 C225.258002,16.0573355 225.513666,16.572997 225.661,17.171 C225.808334,17.769003 225.882,18.4319964 225.882,19.16 L225.882,28 L223.672,28 L223.672,18.9 C223.672,18.0679958 223.429336,17.4093358 222.944,16.924 C222.458664,16.4386642 221.791338,16.196 220.942,16.196 C220.265997,16.196 219.681002,16.299999 219.187,16.508 C218.692998,16.716001 218.281335,17.0106648 217.952,17.392 C217.622665,17.7733352 217.375667,18.2196641 217.211,18.731 C217.046333,19.2423359 216.964,19.8013303 216.964,20.408 L216.964,28 L214.754,28 L214.754,14.558 Z M231.55,12.14 L229.34,12.14 L229.34,9.436 L231.55,9.436 L231.55,12.14 Z M229.34,14.558 L231.55,14.558 L231.55,28 L229.34,28 L229.34,14.558 Z" id="SmartAlumni" fill="#060606"></path>
            </g>
        </g>
    </g>
</svg>